<svg width="269" height="224" viewBox="0 0 269 224" fill="none" xmlns="http://www.w3.org/2000/svg">
<path opacity="0.1" d="M268.495 73.5562H243.675V103.643H266.681C266.74 103.953 266.797 104.264 266.865 104.571H243.675V128.83L243.791 128.792C244.447 128.562 245.097 128.317 245.743 128.058L246.159 127.888C246.821 127.616 247.472 127.325 248.111 127.016C248.34 126.91 248.567 126.8 248.791 126.686C252.36 124.929 255.65 122.655 258.555 119.937C258.639 119.865 258.717 119.789 258.793 119.716C259.19 119.333 259.579 118.947 259.956 118.55L260.372 118.107C260.818 117.624 261.247 117.124 261.665 116.62L261.849 116.398C263.531 114.336 264.944 112.068 266.055 109.649C266.09 109.576 266.12 109.501 266.152 109.428C266.489 108.667 266.794 107.895 267.059 107.109C267.172 106.777 267.28 106.445 267.375 106.113C267.407 106.013 267.437 105.916 267.464 105.819C268.841 101 269 95.9923 269 91.0116C269 90.4311 269 89.848 269 89.2703C269 87.2592 268.97 85.221 268.933 83.2098C268.933 82.6861 268.908 82.1651 268.895 81.6387C268.862 80.3015 268.814 78.9661 268.749 77.6325C268.733 77.26 268.717 76.8901 268.692 76.523C268.692 76.3097 268.671 76.0964 268.657 75.8832C268.603 75.0922 268.555 74.3255 268.495 73.5562Z" fill="#FFAB2B"/>
<path opacity="0.1" d="M243.675 40.0626H257.289C255.057 36.9615 252.637 34.0008 250.041 31.1972C248.016 28.989 245.892 26.8347 243.667 24.7615L243.675 40.0626Z" fill="#FFAB2B"/>
<path opacity="0.1" d="M243.675 40.9913V72.6275H268.417C268.417 72.5357 268.401 72.4412 268.393 72.3575C268.371 72.1092 268.349 71.8608 268.325 71.6097C268.301 71.3587 268.268 71.0266 268.236 70.7324C268.204 70.4381 268.171 70.098 268.133 69.7848C268.096 69.4717 268.063 69.1504 268.023 68.8346C267.982 68.5187 267.944 68.2029 267.901 67.8897C267.858 67.5766 267.818 67.258 267.769 66.9449C267.731 66.6749 267.696 66.4266 267.656 66.1647C267.599 65.7976 267.54 65.4277 267.477 65.0633C267.47 65.0088 267.46 64.9548 267.448 64.9013C267.001 62.219 266.393 59.5659 265.628 56.9565C264.819 54.1919 263.793 51.4957 262.559 48.8929C261.228 46.1397 259.684 43.4951 257.94 40.9832L243.675 40.9913Z" fill="#FFAB2B"/>
<path opacity="0.1" fill-rule="evenodd" clip-rule="evenodd" d="M224.163 40.052V40.9806H184.733V72.6277H237.747V40.9914H235.088V40.0628H237.747V19.6163C227.435 11.3097 215.381 4.80373 201.956 1.79911C196.302 0.547579 190.524 -0.0547208 184.733 0.00390066V40.0628L224.163 40.052ZM184.733 103.643V73.5563H237.747V103.643H184.733ZM184.733 124.945V104.572H237.726V130.39L237.532 130.425L237.519 130.428L237.517 130.428C237.285 130.47 237.055 130.512 236.824 130.547C236.416 130.614 236.014 130.679 235.606 130.733L235.366 130.763C235.213 130.786 235.057 130.804 234.904 130.822L234.877 130.825C234.459 130.873 234.062 130.917 233.649 130.949L233.066 130.995L232.594 131.025L232.502 131.031C232.277 131.048 232.053 131.065 231.83 131.065C231.673 131.081 231.517 131.081 231.357 131.081H230.985H230.523H229.894H229.624C229.414 131.065 229.203 131.065 228.995 131.065H228.982L228.544 131.049C228.503 131.052 228.461 131.052 228.42 131.049H228.058H227.975L227.165 130.992C226.895 130.971 226.625 130.944 226.355 130.917L225.799 130.857C223.536 130.576 221.294 130.153 219.085 129.588C216.552 128.958 214.05 128.201 211.546 127.444C209.162 126.723 206.775 126.002 204.359 125.388C197.961 123.768 190.904 122.972 184.733 124.945ZM103.139 40.052L102.952 39.8738L116.626 26.5325C119.967 26.3815 123.24 25.5356 126.236 24.0489C130.18 22.1413 133.58 19.5163 136.983 16.8892L136.983 16.8891C138.507 15.7129 140.031 14.5363 141.605 13.4234C152.195 5.92673 165.331 1.40225 178.802 0.281932V40.052H103.139ZM102.431 23.5576V23.5696L102.42 23.5684L102.431 23.5576ZM102.431 23.5696V32.5607L109.742 25.4257C107.027 24.4876 104.886 23.8456 102.431 23.5696ZM102.431 136.821H102.188L102.42 136.815V104.558H118.008C118.048 104.412 118.091 104.283 118.14 104.142C118.115 104.221 118.092 104.297 118.069 104.371L118.068 104.373C118.049 104.435 118.03 104.496 118.01 104.558H178.791V127.882C178.214 128.26 177.644 128.665 177.08 129.07C176.622 129.405 176.168 129.744 175.715 130.083C175.564 130.195 175.414 130.308 175.263 130.42L174.664 130.879C174.372 131.095 174.078 131.308 173.784 131.521C173.195 131.943 172.602 132.36 172.005 132.774C171.708 132.982 171.405 133.187 171.106 133.389C166.287 136.657 161.248 139.585 156.023 142.152C154.842 142.734 153.653 143.3 152.454 143.85C151.655 144.219 150.852 144.579 150.044 144.93C148.831 145.456 147.609 145.965 146.378 146.458C134.911 151.022 122.916 154.13 110.676 155.707C107.938 156.067 105.19 156.349 102.431 156.554V136.821ZM102.431 40.986V72.6276H178.802V40.9914L102.431 40.986ZM102.431 103.643V73.5509L178.802 73.5563V103.643H102.431ZM87.1625 24.4835L96.4922 33.5892V23.5171C93.3661 23.7115 90.2562 24.0336 87.1625 24.4835ZM22.1974 103.643V73.5563H96.4922V103.643H22.1974ZM40.155 147.862C51.4159 152.149 63.1899 154.942 75.1764 156.171H75.2277C77.4936 156.41 79.7657 156.596 82.0441 156.727H82.1278C86.9034 156.997 91.6978 157.059 96.4841 156.881V104.572H22.1974L22.4674 139.212L40.155 147.862ZM16.2719 103.643H1.61864C1.63213 95.1204 4.05635 86.417 7.87084 78.4992C8.15159 77.9125 8.44044 77.3321 8.7374 76.758C9.29081 75.6781 9.87391 74.6145 10.4759 73.5563H16.2719V103.643ZM1.61864 104.572C1.73742 110.683 3.1142 116.682 6.13501 122.224C8.64561 126.827 12.1335 130.863 16.2611 134.372V104.572H1.61864ZM16.2611 72.6277H11.0185C12.6173 69.9215 14.3676 67.3078 16.2611 64.7989V72.6277ZM43.9236 40.0628H94.7402L94.9238 39.8846L94.6538 39.6147L80.365 25.6768C76.1239 26.5621 71.9357 27.6841 67.8201 29.0378C67.6494 29.0935 67.4786 29.1524 67.3081 29.2111L67.3079 29.2112L67.3078 29.2112C67.0902 29.2863 66.873 29.3611 66.6566 29.4292C58.71 32.1246 51.0859 35.6908 43.9236 40.0628ZM22.1974 72.6277V57.7099C28.1935 51.2937 34.9933 45.6789 42.428 41.005H95.4583L96.5003 41.8526V72.6277H87.3677H87.3542H22.1974Z" fill="#FFAB2B"/>
<path opacity="0.1" d="M243.675 56.9485V72.6276H268.417C268.417 72.5358 268.401 72.4413 268.393 72.3576C268.371 72.1093 268.349 71.8609 268.325 71.6098C268.301 71.3588 268.268 71.0267 268.236 70.7325C268.204 70.4382 268.171 70.0981 268.133 69.7849C268.096 69.4718 268.063 69.1505 268.023 68.8347C267.982 68.5188 267.944 68.203 267.901 67.8898C267.858 67.5767 267.818 67.2581 267.769 66.945C267.731 66.675 267.696 66.4267 267.656 66.1648C267.599 65.7977 267.54 65.4278 267.477 65.0634C267.47 65.0089 267.46 64.9548 267.448 64.9014C267.001 62.2191 266.393 59.566 265.628 56.9566L243.675 56.9485Z" fill="#FFAB2B"/>
<path opacity="0.1" d="M268.495 73.5562H243.675V103.643H266.681C266.74 103.953 266.797 104.264 266.865 104.571H243.675V128.83L243.791 128.792C244.447 128.562 245.097 128.317 245.743 128.058L246.159 127.888C246.821 127.616 247.472 127.325 248.111 127.016C248.34 126.91 248.567 126.8 248.791 126.686C252.36 124.929 255.65 122.655 258.555 119.937C258.639 119.865 258.717 119.789 258.793 119.716C259.19 119.333 259.579 118.947 259.956 118.55L260.372 118.107C260.818 117.624 261.247 117.124 261.665 116.62L261.849 116.398C263.531 114.336 264.944 112.068 266.055 109.649C266.09 109.576 266.12 109.501 266.152 109.428C266.489 108.667 266.794 107.895 267.059 107.109C267.172 106.777 267.28 106.445 267.375 106.113C267.407 106.013 267.437 105.916 267.464 105.819C268.841 101 269 95.9923 269 91.0116C269 90.4311 269 89.848 269 89.2703C269 87.2592 268.97 85.221 268.933 83.2098C268.933 82.6861 268.908 82.1651 268.895 81.6387C268.862 80.3015 268.814 78.9661 268.749 77.6325C268.733 77.26 268.717 76.8901 268.692 76.523C268.692 76.3097 268.671 76.0964 268.657 75.8832C268.603 75.0922 268.555 74.3255 268.495 73.5562Z" fill="#FFAB2B"/>
<path opacity="0.1" d="M219.085 45.5213V72.6277H237.747V45.5213H235.088V36.3428H224.163V45.5213H219.085Z" fill="#FFAB2B"/>
<rect opacity="0.1" x="219.085" y="73.5562" width="18.6621" height="30.084" fill="#FFAB2B"/>
<path opacity="0.1" d="M237.747 104.572H219.088V129.588C221.296 130.152 223.537 130.575 225.799 130.857L226.355 130.917C226.625 130.946 226.895 130.971 227.165 130.992L227.975 131.049C228.002 131.049 228.031 131.049 228.058 131.049C228.177 131.049 228.299 131.049 228.42 131.065H228.544C228.69 131.065 228.836 131.065 228.984 131.081C229.192 131.081 229.403 131.081 229.613 131.097H229.883C230.094 131.097 230.302 131.097 230.512 131.097H230.974H231.346L231.822 131.081C232.073 131.081 232.329 131.06 232.583 131.041L233.053 131.011L233.638 130.965C234.049 130.93 234.448 130.89 234.864 130.841L235.353 130.779L235.593 130.749C236 130.693 236.403 130.633 236.81 130.563C237.113 130.517 237.41 130.46 237.712 130.406L237.747 104.572Z" fill="#FFAB2B"/>
<rect opacity="0.1" x="102.42" y="42.3196" width="15.3902" height="30.3053" fill="#FFAB2B"/>
<path opacity="0.1" d="M102.42 73.5562V103.643H178.802V90.666H138.117V98.322H117.808V73.5562H102.42Z" fill="#FFAB2B"/>
<path opacity="0.1" d="M102.178 136.832H102.42V156.568C105.179 156.359 107.928 156.077 110.665 155.72C122.909 154.137 134.907 151.025 146.378 146.458C149.66 145.141 152.875 143.706 156.023 142.155C161.248 139.586 166.287 136.658 171.106 133.39C172.31 132.573 173.495 131.737 174.661 130.882C175.471 130.285 176.281 129.678 177.091 129.086C177.655 128.682 178.224 128.277 178.802 127.896V104.572H118.013C118.056 104.434 118.097 104.302 118.14 104.159C118.094 104.296 118.048 104.429 118.008 104.572H102.42V136.818L102.178 136.832Z" fill="#FFAB2B"/>
<path opacity="0.1" d="M62.286 40.0626H72.3122V37.2848H67.8201V29.0376C67.4314 29.1645 67.0426 29.3076 66.6566 29.429V37.2848H62.286V40.0626Z" fill="#FFAB2B"/>
<path opacity="0.1" d="M38.1249 72.6277H87.3542H87.338H87.3623H96.4922V42.3196H93.906V64.7261H82.0819V51.4658H72.3122V40.9915H62.286V51.4658H52.519V64.7234H38.1249V72.6277Z" fill="#FFAB2B"/>
<path opacity="0.1" fill-rule="evenodd" clip-rule="evenodd" d="M38.1249 103.643V73.5562H96.4922V103.643H38.1249ZM75.1845 156.171C63.198 154.942 51.424 152.149 40.1631 147.862L22.2811 139.05L22.1974 115.237H38.1249V104.571H96.4922V156.881C91.7059 157.059 86.9115 156.997 82.1359 156.727H82.0522C79.7738 156.596 77.5017 156.41 75.2358 156.171H75.1845Z" fill="#FFAB2B"/>
<path opacity="0.1" d="M15.2433 104.572H1.62943C1.74821 110.683 3.12768 116.682 6.1458 122.224C8.6564 126.829 12.1469 130.863 16.2719 134.372V115.238H15.2433V104.572Z" fill="#FFAB2B"/>
<path opacity="0.1" d="M1.61864 103.643H15.2434V78.4993H7.87084C4.05635 86.4171 1.63213 95.1205 1.61864 103.643Z" fill="#FFAB2B"/>
<rect opacity="0.1" x="102.42" y="50.7449" width="8.24448" height="9.50248" fill="#FFAB2B"/>
<rect opacity="0.1" x="102.42" y="70.4409" width="8.24448" height="2.18665" fill="#FFAB2B"/>
<rect opacity="0.1" x="102.42" y="73.5562" width="8.24448" height="6.38448" fill="#FFAB2B"/>
<rect opacity="0.1" x="102.42" y="90.1343" width="8.24448" height="9.50248" fill="#FFAB2B"/>
<rect opacity="0.1" x="102.42" y="109.831" width="8.24448" height="9.50248" fill="#FFAB2B"/>
<path opacity="0.1" d="M102.42 136.818H102.178H102.42V139.023H110.665V129.521H102.42V136.818Z" fill="#FFAB2B"/>
<path opacity="0.1" d="M102.42 149.217V156.557C105.179 156.348 107.928 156.066 110.665 155.71V149.231L102.42 149.217Z" fill="#FFAB2B"/>
<rect opacity="0.1" x="143.47" y="102.944" width="35.3319" height="0.696488" fill="#FFAB2B"/>
<rect opacity="0.1" x="143.47" y="104.572" width="35.3319" height="2.67527" fill="#FFAB2B"/>
<rect opacity="0.1" x="143.47" y="116.015" width="35.3319" height="4.30311" fill="#FFAB2B"/>
<path opacity="0.1" d="M143.47 129.086V133.39H171.108C172.309 132.574 173.494 131.737 174.664 130.879C175.473 130.285 176.283 129.678 177.093 129.089L143.47 129.086Z" fill="#FFAB2B"/>
<path opacity="0.1" d="M143.47 142.155V146.458H146.378C149.658 145.144 152.873 143.71 156.02 142.155H143.47Z" fill="#FFAB2B"/>
<rect opacity="0.1" x="82.1359" y="82.6592" width="6.95409" height="6.18471" transform="rotate(-180 82.1359 82.6592)" fill="#FFAB2B"/>
<rect opacity="0.1" x="232.734" y="53.8386" width="6.95409" height="6.18471" transform="rotate(-180 232.734 53.8386)" fill="#FFAB2B"/>
<rect opacity="0.1" x="232.734" y="68.2058" width="6.95409" height="6.18471" transform="rotate(-180 232.734 68.2058)" fill="#FFAB2B"/>
<rect opacity="0.1" x="232.734" y="82.5701" width="6.95409" height="6.18471" transform="rotate(-180 232.734 82.5701)" fill="#FFAB2B"/>
<rect opacity="0.1" x="232.734" y="96.9373" width="6.95409" height="6.18471" transform="rotate(-180 232.734 96.9373)" fill="#FFAB2B"/>
<rect opacity="0.1" x="232.734" y="111.307" width="6.95409" height="6.18471" transform="rotate(-180 232.734 111.307)" fill="#FFAB2B"/>
<rect opacity="0.1" x="232.734" y="125.671" width="6.95409" height="6.18471" transform="rotate(-180 232.734 125.671)" fill="#FFAB2B"/>
<rect opacity="0.1" x="55.583" y="82.6592" width="6.95409" height="6.18471" transform="rotate(-180 55.583 82.6592)" fill="#FFAB2B"/>
<rect opacity="0.1" x="82.1359" y="97.9119" width="6.95409" height="6.18471" transform="rotate(-180 82.1359 97.9119)" fill="#FFAB2B"/>
<rect opacity="0.1" x="55.583" y="97.9119" width="6.95409" height="6.18471" transform="rotate(-180 55.583 97.9119)" fill="#FFAB2B"/>
<rect opacity="0.1" x="82.1359" y="113.167" width="6.95409" height="6.18471" transform="rotate(-180 82.1359 113.167)" fill="#FFAB2B"/>
<rect opacity="0.1" x="55.583" y="113.167" width="6.95409" height="6.18471" transform="rotate(-180 55.583 113.167)" fill="#FFAB2B"/>
<rect opacity="0.1" x="82.1359" y="128.422" width="6.95409" height="6.18471" transform="rotate(-180 82.1359 128.422)" fill="#FFAB2B"/>
<rect opacity="0.1" x="55.583" y="128.422" width="6.95409" height="6.18471" transform="rotate(-180 55.583 128.422)" fill="#FFAB2B"/>
<rect opacity="0.1" x="82.1359" y="143.68" width="6.95409" height="6.18471" transform="rotate(-180 82.1359 143.68)" fill="#FFAB2B"/>
<rect opacity="0.1" x="55.583" y="143.68" width="6.95409" height="6.18471" transform="rotate(-180 55.583 143.68)" fill="#FFAB2B"/>
<path opacity="0.1" d="M82.1332 156.738V152.751H75.1818V156.171L82.1332 156.738Z" fill="#FFAB2B"/>
<path opacity="0.1" fill-rule="evenodd" clip-rule="evenodd" d="M243.675 64.8906V68.4298H267.477V64.8906H243.675ZM265.107 65.1148H267.048V68.2085H265.096L265.107 65.1148ZM264.689 65.1148H262.737L262.729 68.2085H264.689V65.1148ZM260.372 65.1148H262.324V68.2085H260.372V65.1148ZM259.954 65.1148H258.002V68.2085H259.954V65.1148ZM255.634 65.1148H257.6V68.2085H255.648L255.634 65.1148ZM255.216 65.1148H253.264V68.2085H255.216V65.1148ZM250.894 65.1148H252.846V68.2085H250.894V65.1148ZM250.478 65.1148H248.526V68.2085H250.478V65.1148ZM246.159 65.1148H248.111V68.2085H246.159V65.1148ZM245.743 65.1148H243.791V68.2085H245.743V65.1148Z" fill="#FFAB2B"/>
<path opacity="0.1" fill-rule="evenodd" clip-rule="evenodd" d="M243.675 75.1921V78.7313H267.477V75.1921H243.675ZM265.107 75.4162H267.048V78.5072H265.096L265.107 75.4162ZM264.689 75.4162H262.737L262.729 78.5072H264.689V75.4162ZM260.372 75.4162H262.324V78.5072H260.372V75.4162ZM259.954 75.4162H258.002V78.5072H259.954V75.4162ZM255.634 75.4162H257.6V78.5072H255.648L255.634 75.4162ZM255.216 75.4162H253.264V78.5072H255.216V75.4162ZM250.894 75.4162H252.846V78.5072H250.894V75.4162ZM250.478 75.4162H248.526V78.5072H250.478V75.4162ZM246.159 75.4162H248.111V78.5072H246.159V75.4162ZM245.743 75.4162H243.791V78.5072H245.743V75.4162Z" fill="#FFAB2B"/>
<path opacity="0.1" fill-rule="evenodd" clip-rule="evenodd" d="M243.675 85.4912V89.0276H267.477V85.4912H243.675ZM265.107 85.7126H267.048V88.8063H265.096L265.107 85.7126ZM264.689 85.7126H262.737L262.729 88.8063H264.689V85.7126ZM260.372 85.7126H262.324V88.8063H260.372V85.7126ZM259.954 85.7126H258.002V88.8063H259.954V85.7126ZM255.634 85.7126H257.6V88.8063H255.648L255.634 85.7126ZM255.216 85.7126H253.264V88.8063H255.216V85.7126ZM250.894 85.7126H252.846V88.8063H250.894V85.7126ZM250.478 85.7126H248.526V88.8063H250.478V85.7126ZM246.159 85.7126H248.111V88.8063H246.159V85.7126ZM245.743 85.7126H243.791V88.8063H245.743V85.7126Z" fill="#FFAB2B"/>
<path opacity="0.1" fill-rule="evenodd" clip-rule="evenodd" d="M243.675 95.79V99.3265H267.477V95.79H243.675ZM265.107 96.0114H267.048V99.1051H265.096L265.107 96.0114ZM264.689 96.0114H262.737L262.729 99.1051H264.689V96.0114ZM260.372 96.0114H262.324V99.1051H260.372V96.0114ZM259.954 96.0114H258.002V99.1051H259.954V96.0114ZM255.634 96.0114H257.6V99.1051H255.648L255.634 96.0114ZM255.216 96.0114H253.264V99.1051H255.216V96.0114ZM250.894 96.0114H252.846V99.1051H250.894V96.0114ZM250.478 96.0114H248.526V99.1051H250.478V96.0114ZM246.159 96.0114H248.111V99.1051H246.159V96.0114ZM245.743 96.0114H243.791V99.1051H245.743V96.0114Z" fill="#FFAB2B"/>
<path opacity="0.1" fill-rule="evenodd" clip-rule="evenodd" d="M243.675 109.633V106.089H267.364C267.27 106.424 267.162 106.753 267.048 107.082V106.313H265.107V109.412H266.149C266.12 109.485 266.087 109.561 266.055 109.633H243.675ZM264.689 106.313H262.737L262.729 109.404H264.689V106.313ZM260.372 106.313H262.324V109.404H260.372V106.313ZM259.954 106.313H258.002V109.404H259.954V106.313ZM255.634 106.313H257.6V109.404H255.648L255.634 106.313ZM255.216 106.313H253.264V109.404H255.216V106.313ZM250.894 106.313H252.846V109.404H250.894V106.313ZM250.478 106.313H248.526V109.404H250.478V106.313ZM246.159 106.313H248.111V109.404H246.159V106.313ZM245.743 106.313H243.791V109.404H245.743V106.313Z" fill="#FFAB2B"/>
<path opacity="0.1" fill-rule="evenodd" clip-rule="evenodd" d="M243.675 116.382V119.919H258.553C258.604 119.875 258.652 119.83 258.698 119.786C258.73 119.756 258.761 119.726 258.793 119.697H258.002V116.612H259.954V118.542L260.372 118.097V116.612H261.665C261.682 116.591 261.699 116.57 261.716 116.549L261.716 116.549C261.76 116.495 261.804 116.441 261.849 116.39L243.675 116.382ZM255.634 116.604H257.6V119.697H255.648L255.634 116.604ZM255.216 116.604H253.264V119.697H255.216V116.604ZM250.894 116.604H252.846V119.697H250.894V116.604ZM250.478 116.604H248.526V119.697H250.478V116.604ZM246.159 116.604H248.111V119.697H246.159V116.604ZM245.743 116.604H243.791V119.697H245.743V116.604Z" fill="#FFAB2B"/>
<path opacity="0.1" d="M243.675 126.689V128.83C243.715 128.819 243.754 128.806 243.791 128.789V126.9H245.743V128.05L246.159 127.88V126.911H248.111V127.019C248.34 126.913 248.567 126.803 248.791 126.692L243.675 126.689Z" fill="#FFAB2B"/>
<path opacity="0.1" fill-rule="evenodd" clip-rule="evenodd" d="M224.163 40.9914V40.0627H235.088V40.9914H224.163ZM118.066 104.384C118.047 104.447 118.028 104.509 118.008 104.572C118.048 104.434 118.091 104.296 118.137 104.156C118.112 104.235 118.089 104.31 118.066 104.384Z" fill="#FFAB2B"/>
<ellipse opacity="0.1" cx="243.756" cy="221.531" rx="9.3351" ry="1.03393" fill="#FFAB2B"/>
<path d="M180.416 144.501L175.752 144.244L175.436 130.846L175.363 127.656L180.284 126.749L180.316 130.863L180.416 144.501Z" fill="#D48A9B"/>
<path d="M176.785 142.169L152.813 157.073L152.295 161.608L154.887 161.738V158.498L170.566 149.687L151.647 173.141V176.769H154.757L154.498 172.752L176.397 147.873L179.118 148.132L202.186 174.307L202.704 178.715L205.814 178.845L205.296 174.307L187.025 151.501L199.205 159.924L199.465 163.552L201.927 163.681L201.667 159.276L178.47 141.391L176.785 142.169Z" fill="#D48A9B"/>
<path d="M146.669 116.676C148.933 113.86 150.83 110.768 152.317 107.474C153.966 103.824 155.775 99.6098 155.912 98.3626C156.182 96.0302 162.78 91.3653 170.037 91.1061C174.769 90.9361 182.141 87.2431 186.704 84.692C190.995 82.2519 195.767 80.7779 200.687 80.3727C206.024 79.9704 211.043 81.0179 208.516 87.2107L174.583 128.303C174.583 128.303 145.643 133.403 143.859 125.204C143.759 124.791 143.621 124.388 143.446 124C143.108 123.226 143.019 121.204 146.669 116.676Z" fill="#FFAB2B"/>
<path opacity="0.2" d="M149.217 117.492C151.496 114.644 153.412 111.525 154.922 108.205C156.46 104.793 158.094 100.968 158.223 99.8095C158.472 97.5823 164.794 93.1253 171.737 92.877C176.264 92.715 183.318 89.1894 187.681 86.7516C191.791 84.4242 196.358 83.0202 201.065 82.6375C206.17 82.2542 210.973 83.2557 208.565 89.1705L181.647 128.584C181.647 128.584 148.443 133.295 146.685 125.501C146.581 125.087 146.443 124.683 146.272 124.292C145.965 123.52 145.921 121.627 149.217 117.492Z" fill="#DDA2A6"/>
<path opacity="0.1" d="M180.316 130.863C178.756 130.863 177.112 130.863 175.436 130.846L175.363 127.656L180.284 126.751L180.316 130.863Z" fill="black"/>
<g opacity="0.1">
<path d="M199.205 159.146L187.025 150.723L188.421 152.465L199.205 159.924L199.465 163.552L201.927 163.681L201.881 162.901L199.465 162.774L199.205 159.146Z" fill="black"/>
<path d="M154.887 157.721V158.498L169.418 150.332L170.566 148.909L154.887 157.721Z" fill="black"/>
<path d="M151.647 175.991V176.769H154.757L154.706 175.991H151.647Z" fill="black"/>
<path d="M154.887 160.96L152.381 160.836L152.295 161.608L154.887 161.738V160.96Z" fill="black"/>
<path d="M202.704 177.938L202.186 173.529L179.118 147.354L176.397 147.095L154.498 171.974L154.544 172.701L176.397 147.873L179.118 148.132L202.186 174.307L202.704 178.715L205.814 178.845L205.725 178.062L202.704 177.938Z" fill="black"/>
</g>
<path opacity="0.1" d="M177.563 105.33C177.563 105.33 183.632 109.768 180.975 109.819C178.319 109.871 177.563 105.33 177.563 105.33Z" fill="black"/>
<path d="M152.101 129.61C152.101 129.61 162.143 128.833 165.901 121.576C165.901 121.576 173.546 106.413 179.768 104.728C185.991 103.044 197.521 99.2859 202.315 93.4549C207.11 87.6238 209.121 83.1533 209.121 83.1533C209.121 83.1533 210.357 87.8722 206.462 93.436C202.566 98.9998 201.149 107.568 198.428 116.652C195.707 125.736 194.67 129.34 189.746 129.88C186.034 130.272 166.408 130.075 157.025 129.88C153.955 129.796 152.101 129.61 152.101 129.61Z" fill="#FFAB2B"/>
<path opacity="0.2" d="M152.101 129.61C152.101 129.61 162.143 128.833 165.901 121.576C165.901 121.576 173.546 106.413 179.768 104.728C185.991 103.044 197.521 99.2859 202.315 93.4549C207.11 87.6238 209.121 83.1533 209.121 83.1533C209.121 83.1533 210.357 87.8722 206.462 93.436C202.566 98.9998 201.149 107.568 198.428 116.652C195.707 125.736 194.67 129.34 189.746 129.88C186.034 130.272 166.408 130.075 157.025 129.88C153.955 129.796 152.101 129.61 152.101 129.61Z" fill="#DDA2A6"/>
<path d="M154.627 129.61C154.627 129.61 164.227 128.857 167.818 121.83C167.818 121.83 175.128 107.15 181.072 105.519C187.017 103.889 198.042 100.247 202.626 94.6021C207.21 88.9573 209.129 84.6272 209.129 84.6272C209.129 84.6272 210.303 89.2165 206.589 94.6021C202.874 99.9877 201.511 108.278 198.908 117.062C196.306 125.847 195.318 129.359 190.61 129.861C187.063 130.239 168.303 130.047 159.333 129.861C156.401 129.804 154.627 129.61 154.627 129.61Z" fill="#FFAB2B"/>
<path opacity="0.1" d="M146.853 125.831C146.853 125.831 152.101 127.839 155.081 126.738C158.061 125.636 165.447 122.397 165.447 122.397C165.447 122.397 153.008 123.185 146.853 125.831Z" fill="black"/>
<path d="M181.942 220.14C181.942 220.14 166.856 219.33 163.18 217.171C159.503 215.011 154.298 215.011 154.271 215.011L94.2057 201.918L69.2347 195.979L64.7804 195.393L79.4931 178.559L79.9412 178.364L101.63 168.983C101.63 168.983 111.348 169.523 113.267 175.856C113.399 176.303 113.489 176.76 113.537 177.222C113.739 179.198 113.191 181.176 112.004 182.767C111.237 183.815 110.295 185.302 109.998 186.612C109.831 187.351 109.869 188.034 110.268 188.555C111.078 189.359 111.972 190.073 112.935 190.685C118.224 194.195 131.592 199.977 154.946 191.12C154.946 191.12 164.934 181.266 172.493 185.451C180.052 189.635 181.942 220.14 181.942 220.14Z" fill="#E1DEE5"/>
<path opacity="0.1" d="M110.009 186.612C109.842 187.351 109.879 188.034 110.279 188.555C111.089 189.359 111.983 190.073 112.946 190.685L67.48 194.089L79.9412 178.364L101.63 168.983C101.63 168.983 111.348 169.523 113.267 175.856C113.399 176.303 113.489 176.76 113.537 177.222C113.739 179.198 113.191 181.176 112.004 182.767C111.248 183.815 110.306 185.302 110.009 186.612Z" fill="black"/>
<path d="M65.5903 124.71L102.844 125.52V170.114L67.48 194.089L58.9763 186.261L60.7311 160.345L58.9763 136.184L65.5903 124.71Z" fill="#A36468"/>
<path d="M44.3987 117.421L87.8941 104.018C88.6758 103.779 89.4951 103.687 90.3102 103.748L194.217 111.331C203.104 111.941 211.658 114.958 218.961 120.059C225.685 124.802 232.345 132.083 235.428 143.108C237.658 151.243 237.504 159.848 234.983 167.898L225.804 197.593C225.804 197.593 232.688 133.074 163.984 129.834L44.3987 117.421Z" fill="#D9D6DF"/>
<path d="M67.48 123.766V195.393C67.48 195.393 55.5614 193.717 53.4422 191.39C51.7037 189.481 41.6316 184.101 37.261 178.559C36.3027 177.344 35.617 176.129 35.3551 174.922C33.892 168.26 27.9313 152.516 27.9313 152.516L29.551 137.128L36.3 127.14L49.3929 121.201H59.5162L67.48 123.766Z" fill="#B8797D"/>
<path d="M48.583 124.71C48.583 124.71 29.2109 136.859 33.4492 156.406C33.7948 157.999 34.0944 159.6 34.2915 161.219C35.0663 167.542 39.7149 185.71 67.48 194.089V195.979L55.7018 192.694L47.7056 188.285L41.6019 182.811L34.1403 173.708L30.6768 166.284L29.408 156.506L28.6764 145.343L30.4608 135.768L34.6694 129.537L39.7986 125.55L48.583 124.71Z" fill="#D9D6DF"/>
<path opacity="0.1" d="M67.48 123.766V135.16C59.0303 136.078 32.8688 141.369 37.5148 171.605L37.2583 178.548C36.3 177.333 35.6143 176.118 35.3524 174.912C33.8893 168.249 27.9286 152.505 27.9286 152.505L29.5484 137.118L36.2973 127.129L49.3902 121.19H59.5136L67.48 123.766Z" fill="black"/>
<path opacity="0.1" d="M112.015 182.767C111.248 183.815 110.306 185.302 110.009 186.612C108.832 185.262 108.578 183.709 110.279 182.481C112.409 180.932 113.119 178.243 113.278 175.856C113.409 176.303 113.5 176.76 113.548 177.222C113.749 179.198 113.202 181.176 112.015 182.767Z" fill="white"/>
<path d="M221.085 190.04L215.956 207.452L204.348 218.79L189.77 221.76L167.094 217.711V137.129C167.094 137.129 171.008 134.564 171.413 134.564C171.818 134.564 182.752 136.319 182.752 136.319L207.507 154.074L208.532 154.811L219.601 171.278L221.085 190.04Z" fill="#B8797D"/>
<path d="M167.094 133.754V217.71L169.281 218.102V133.754H167.094Z" fill="#A36468"/>
<path opacity="0.1" d="M207.992 159.67C191.795 146.361 173.789 144.404 167.094 144.161V137.142C167.094 137.142 171.008 134.577 171.413 134.577C171.818 134.577 182.752 136.332 182.752 136.332L207.507 154.087L207.992 159.67Z" fill="black"/>
<path fill-rule="evenodd" clip-rule="evenodd" d="M62.2158 117.287L163.674 128.355C211.102 128.862 223.771 159.052 227.127 176.842C228.968 186.568 227.537 196.673 222.759 205.338C208.816 230.612 179.218 223.177 170.482 220.308C168.403 219.63 166.298 219.033 164.165 218.55L67.9416 196.746C34.826 190.985 27.988 164.17 27.988 164.17C21.4307 143.483 25.9201 131.435 31.8592 124.605C36.6212 119.188 43.6123 116.266 50.8128 116.682L62.2158 117.287ZM165.496 216.582C173.557 219.071 200.369 225.38 213.381 204.183C218.167 196.392 219.593 187.014 217.719 178.076C214.528 162.782 201.972 140.592 161.617 139.223C159.765 139.161 157.915 138.999 156.08 138.754L65.3311 126.63L54.8244 126.09C46.9309 125.69 39.3127 129.37 34.9367 135.949C30.7578 142.233 28.4982 152.162 33.6679 167.55C33.6679 167.55 39.993 190.963 70.6169 195.993L159.503 215.008C161.525 215.44 163.522 215.972 165.496 216.582Z" fill="#E1DEE5"/>
<path fill-rule="evenodd" clip-rule="evenodd" d="M9.50947 174.633C9.50947 174.633 4.46397 175.692 1.14081 173.467C-0.603115 172.304 -0.111793 170.789 1.04362 169.61C2.09915 168.538 3.7027 167.744 4.67184 167.744C6.71001 167.744 14.7439 158.204 15.2838 156.854C15.4782 156.363 15.8049 156.538 16.1396 156.962C16.7956 155.418 17.646 153.245 17.8754 151.693C17.0143 151.474 16.4609 151.315 16.4609 151.315C16.4609 151.315 16.3556 148.24 17.106 147.921C17.114 147.918 17.1214 147.914 17.1276 147.908C17.8538 147.478 17.8538 141.137 17.8538 141.137C17.8538 141.137 19.5681 135.527 19.3548 133.514C19.1415 131.5 23.6201 116.134 23.6201 116.134C23.6201 116.134 24.7998 106.877 26.9433 105.94C28.6098 105.214 41.6904 101.471 47.4211 99.8317L47.4322 99.8286C47.9164 99.69 48.3479 99.5666 48.7153 99.4613C48.8152 99.2345 49.5468 97.7983 51.9143 97.7983L52.1766 97.7986C54.9755 97.8021 62.2873 97.8113 64.7777 94.9368C65.0942 94.5439 65.3591 94.112 65.566 93.6518C64.2972 91.3113 64.2135 87.459 64.6697 86.5627C65.3203 85.2912 65.7496 82.7483 65.7496 82.7483C65.7496 82.7483 66.0708 76.5986 66.5054 75.0086C66.9401 73.4185 68.7488 60.3823 68.7488 60.3823C68.7488 60.3823 72.3851 56.908 74.9578 56.1548C76.0791 55.7901 77.1326 55.2428 78.0758 54.5351C78.0353 54.3191 77.9975 54.1274 77.9651 53.9628C76.2996 52.5615 75.1577 50.6375 74.7256 48.5042C74.6755 48.3878 74.641 48.2653 74.623 48.1398C74.6009 47.9734 74.591 47.8056 74.5933 47.6377C74.561 47.3326 74.5394 47.0222 74.5394 46.709V46.6145V46.5066C74.5082 46.3554 74.4467 46.2121 74.3585 46.0854C74.0897 45.691 73.6054 45.5248 73.1246 45.3598C72.944 45.2978 72.7638 45.2359 72.5957 45.1622C72.5039 45.119 72.4121 45.0731 72.3257 45.0218L72.2474 44.9678C72.2089 44.944 72.1605 44.9102 72.1232 44.8842C72.1056 44.8719 72.0904 44.8614 72.08 44.8544C72.0613 44.8419 72.0444 44.8276 72.0272 44.8131C72.0146 44.8025 72.0019 44.7918 71.9883 44.7815L71.856 44.6682L71.7669 44.5791L71.6535 44.4603L71.5698 44.3577C71.5521 44.3356 71.5344 44.3118 71.5171 44.2887C71.5028 44.2695 71.4888 44.2507 71.4753 44.2335C71.4456 44.1957 71.4213 44.1579 71.3944 44.1174C71.3674 44.077 71.3404 44.0365 71.3161 43.9933C71.2896 43.9513 71.2653 43.9081 71.2432 43.8637C71.2216 43.8259 71.2054 43.7935 71.1811 43.7449C71.1568 43.6963 71.1325 43.6477 71.1109 43.5991L71.065 43.4857L71.0499 43.4484C71.0326 43.4059 71.0148 43.3621 71.0002 43.3184C70.9896 43.2901 70.9806 43.2613 70.9732 43.232L70.9613 43.1966C70.9431 43.1428 70.9244 43.0875 70.9111 43.0322C70.91 43.026 70.91 43.0196 70.9111 43.0133C70.7661 42.4616 70.7158 41.8892 70.7627 41.3207C70.7735 41.1695 70.7896 41.0372 70.8112 40.8996C70.8574 40.6101 70.9208 40.3185 70.9844 40.0266C71.1365 39.3274 71.2892 38.6261 71.2054 37.9462C71.1946 37.8463 71.1811 37.7627 71.1622 37.6763V37.6493C71.1436 37.5579 71.1193 37.4677 71.0893 37.3793C71.0258 37.1927 70.9399 37.0142 70.854 36.8357L70.854 36.8356L70.8539 36.8355L70.8539 36.8354L70.8539 36.8354C70.7609 36.6421 70.6679 36.4489 70.6034 36.2455C70.5772 36.1662 70.5574 36.085 70.544 36.0025C70.5425 35.9801 70.5425 35.9575 70.544 35.9351C70.5197 35.8676 70.5197 35.8001 70.5197 35.7299V35.684C70.5124 35.5033 70.5241 35.3223 70.5548 35.1441C70.7127 34.3776 71.1222 33.6858 71.7183 33.1788C72.6038 32.4094 73.7619 31.9775 74.8984 31.5996C77.8247 30.6331 80.8941 29.6964 84.004 29.4966C84.2717 29.4796 84.5558 29.4497 84.8478 29.4189C86.0403 29.2932 87.3641 29.1537 88.2316 29.8259C88.4095 29.9642 88.5782 30.0974 88.7412 30.226L88.7412 30.226C89.7422 31.0161 90.5239 31.6331 91.8868 32.2043C93.0341 32.6902 94.2138 33.4218 94.4838 34.5799C94.5561 34.9036 94.5471 35.2361 94.5382 35.569V35.5692V35.5693V35.5695V35.5697C94.5331 35.7584 94.528 35.9473 94.5377 36.1348C94.5761 36.8777 94.8411 37.581 95.1065 38.2854C95.2144 38.5717 95.3223 38.8581 95.4151 39.1475C95.6196 39.7311 95.7023 40.3503 95.6581 40.967C95.6569 40.9769 95.6569 40.9869 95.6581 40.9967C95.65 41.0696 95.6392 41.1398 95.6257 41.21V41.2451C95.5937 41.4002 95.5476 41.552 95.488 41.6986L95.4637 41.7526C95.4394 41.807 95.4124 41.8602 95.3827 41.9119L95.3503 41.9686C95.3112 42.0369 95.268 42.1027 95.2207 42.1657C95.1304 42.2849 95.0272 42.3966 94.9245 42.5077C94.797 42.6457 94.6703 42.7828 94.5701 42.9323C94.3359 43.3639 94.2082 43.8452 94.1976 44.3361L94.0437 45.829V45.9397C94.068 46.1583 94.068 46.3797 94.068 46.601C94.0679 47.1147 94.0264 47.6275 93.9438 48.1344C95.0237 48.9524 96.144 49.935 96.3735 50.6531C96.5393 50.8566 96.6341 51.1088 96.6434 51.3712C97.6638 52.1703 102.002 51.6843 102.002 51.6843C102.002 51.6843 105.536 53.5956 106.823 52.8505C108.111 52.1055 115.827 58.0445 115.827 58.0445C115.827 58.0445 117.865 58.1498 117.97 58.9975C117.97 58.9975 120.545 60.9061 122.473 60.9061C124.4 60.9061 125.58 63.3357 125.58 63.3357C125.58 63.3357 128.795 64.8177 129.867 65.031C130.939 65.2443 132.764 66.3052 132.224 66.729C131.684 67.1529 132.34 68.1058 133.304 68.8482C134.267 69.5906 135.766 73.4077 134.481 73.9369C133.966 74.1489 133.089 74.4445 132.162 74.7575C130.774 75.2256 129.272 75.7324 128.693 76.056C128.323 76.2484 127.905 76.3265 127.491 76.2801C127.024 76.3105 126.556 76.2339 126.123 76.056L125.974 75.8698C124.714 76.8254 123.069 77.808 121.493 77.9646C119.007 78.2103 113.651 79.228 111.399 79.668V80.0892C111.418 84.0521 111.235 88.1555 110.471 89.4108C108.864 92.051 108.648 112.838 108.648 112.838C108.648 112.838 103.614 113.58 101.899 115.17C100.28 116.663 92.0515 119.403 90.4317 115.853L89.9188 116.074C85.7453 117.883 80.1976 120.461 79.5632 121.636C78.5347 123.541 71.1406 126.722 71.1406 126.722C71.1406 126.722 66.3138 126.829 67.7094 131.281C69.1051 135.733 58.4931 146.436 58.4931 146.436C58.5192 147.34 58.1194 148.204 57.4133 148.769C56.9895 149.114 55.6586 149.687 54.1144 149.957C53.7176 150.845 53.4125 151.633 53.4476 151.738C53.4827 151.844 52.986 152.324 52.3057 152.924C51.7808 154.091 51.1652 155.216 50.4646 156.287C50.1272 156.765 49.7951 157.135 49.5117 157.248C49.2049 157.373 48.055 158.016 46.5311 158.868C42.8516 160.925 36.9915 164.202 35.5522 164.351C35.3309 164.374 35.083 164.407 34.8122 164.443L34.8111 164.443C32.7622 164.716 29.4026 165.164 26.344 162.78L26.9001 167.301L27.0863 168.802C27.0863 168.802 21.617 171.03 19.3683 171.03C17.1195 171.03 9.50947 174.633 9.50947 174.633ZM56.868 117.597C56.868 117.597 47.1144 119.09 38.0034 118.242C38.0034 118.242 35.096 119.3 35.6305 120.467C36.165 121.633 35.814 123.752 35.563 123.752C35.3119 123.752 34.1295 125.439 34.772 127.356C35.4145 129.273 30.5931 146.647 28.4496 148.979C28.4496 148.979 28.4658 149.036 28.4874 149.139C28.6467 149.849 29.0948 152.716 26.0902 152.902L25.7501 152.915C25.5206 154.729 25.1778 157.583 24.9672 159.953C25.4531 158.547 27.3131 157.121 29.1731 156.001C30.5637 155.175 32.0065 154.44 33.4924 153.801C33.4924 153.801 39.4855 152.37 40.7813 151.204C42.077 150.038 45.9104 147.905 45.9104 147.905C46.5124 147.36 47.19 146.744 47.8298 146.158C47.7938 145.91 47.7695 145.648 47.7569 145.373C47.9091 144.821 48.0985 144.28 48.3238 143.753C48.5776 143.183 48.8989 142.627 49.2579 142.403C50.1137 141.874 53.0076 130.952 53.0076 129.686C53.0076 128.42 54.8325 122.378 55.475 121.317C56.1175 120.256 56.868 117.597 56.868 117.597ZM111.675 71.4802L111.105 71.6205V71.4991C111.105 71.4991 111.313 71.4991 111.675 71.4802ZM80.2624 55.7957C80.3596 55.6958 80.446 55.5932 80.5324 55.4852C80.472 55.4608 80.4122 55.434 80.3522 55.407L80.352 55.4069C80.286 55.3772 80.2196 55.3474 80.1517 55.3206V55.9091L80.2624 55.7957ZM69.7962 76.0505L69.834 76.6471C69.834 76.6471 69.7773 77.0116 69.6693 77.6352L69.7962 76.0505ZM117.179 70.449L119.05 70.1277C119.117 70.1152 119.184 70.108 119.252 70.1061C119.026 70.0326 118.792 69.9828 118.556 69.9576C118.349 69.9767 118.147 70.0315 117.959 70.1196C117.705 70.2411 117.449 70.3491 117.179 70.449Z" fill="url(#paint0_linear_386_1902)"/>
<path d="M55.8016 146.655C55.8016 146.655 53.642 151.112 53.7527 151.428C53.8634 151.744 49.1229 155.526 49.1229 155.526L43.9694 151.847L44.5094 149.32C44.5094 149.32 50.2945 144.107 50.7184 143.505C51.1422 142.903 55.8016 146.655 55.8016 146.655Z" fill="#EFB7B9"/>
<path d="M26.4034 161.735C29.9803 165.207 34.1862 164.165 36.1866 163.946C38.187 163.727 48.8584 157.318 49.8842 156.897C50.1542 156.784 50.4916 156.417 50.8209 155.942C51.5092 154.877 52.1131 153.761 52.627 152.602C52.5568 152.621 49.0581 153.623 48.1754 152.602C48.1754 152.602 46.7014 150.796 46.3856 150.796C46.0697 150.796 46.3613 147.627 46.3613 147.627C46.3613 147.627 42.5981 149.743 41.3374 150.902C40.0767 152.06 34.1835 153.477 34.1835 153.477C32.7261 154.111 31.3121 154.841 29.9506 155.661C27.1646 157.362 24.3571 159.762 26.4034 161.735Z" fill="#67647E"/>
<path opacity="0.1" d="M26.4034 161.735C29.9803 165.207 34.1862 164.165 36.1866 163.946C38.187 163.727 48.8584 157.318 49.8842 156.897C50.1542 156.784 50.4916 156.417 50.8209 155.942C49.5764 155.199 41.4453 160.369 39.1696 161.316C36.8939 162.264 31.1357 161.735 27.8665 160.369C26.2468 159.686 27.8881 157.588 29.9452 155.661C27.1646 157.362 24.3571 159.762 26.4034 161.735Z" fill="black"/>
<path d="M26.8245 150.796C26.8245 150.796 25.3262 162.051 25.7069 163.525C26.0875 164.999 16.3043 158.477 16.3043 158.477C16.3043 158.477 19.7273 151.423 18.7339 149.803C17.7404 148.183 26.8245 150.796 26.8245 150.796Z" fill="#EFB7B9"/>
<path d="M17.4624 151.007C17.4624 151.007 23.5634 152.794 26.9271 152.584C29.875 152.4 29.435 149.555 29.2811 148.85C29.2595 148.75 29.2433 148.693 29.2433 148.693C31.3463 146.377 36.0813 129.127 35.4523 127.235C34.8233 125.342 35.9652 123.671 36.2352 123.671C36.5051 123.671 36.8264 121.566 36.3 120.41C35.7736 119.255 38.6162 118.202 38.6162 118.202C47.5572 119.041 57.1298 117.559 57.1298 117.559C57.1298 117.559 56.3928 120.2 55.7611 121.252C55.1294 122.305 53.3315 128.298 53.3315 129.562C53.3315 130.825 50.4916 141.658 49.6493 142.185C49.2984 142.406 48.9825 142.957 48.7342 143.535C48.5123 144.061 48.3265 144.602 48.1781 145.154C48.4939 152.203 56.4873 149.474 57.6454 148.521C57.8103 148.384 57.9604 148.23 58.0936 148.062C58.4998 147.529 58.7121 146.874 58.6956 146.204C58.6956 146.204 69.1105 135.582 67.7418 131.162C66.3731 126.743 71.1082 126.641 71.1082 126.641C71.1082 126.641 78.3673 123.485 79.377 121.59C80.0006 120.426 85.4429 117.87 89.5408 116.072C92.1081 114.946 94.1463 114.123 94.1463 114.123L92.4402 108.006L91.0904 103.181L88.5582 102.231L80.4595 99.1861L65.9304 97.1479L64.5995 97.3207L50.4835 99.1483C50.4835 99.1483 29.875 105.044 27.7693 105.967C25.6637 106.891 24.5083 116.083 24.5083 116.083C24.5083 116.083 20.0918 131.335 20.3077 133.344C20.5237 135.352 18.8338 140.903 18.8338 140.903C18.8338 140.903 18.8338 147.195 18.1184 147.622C18.1113 147.624 18.1038 147.624 18.0968 147.622C17.3571 147.967 17.4624 151.007 17.4624 151.007Z" fill="#444053"/>
<path opacity="0.1" d="M38.6054 118.188C47.5464 119.028 57.119 117.546 57.119 117.546C57.7507 115.556 66.5918 110.087 66.5918 110.087C59.3381 108.3 38.6054 118.188 38.6054 118.188Z" fill="black"/>
<path d="M48.1781 145.117C48.4939 152.165 56.4873 149.436 57.6454 148.483C57.8103 148.346 57.9604 148.192 58.0936 148.024C55.2995 149.052 50.3458 149.849 48.7342 143.508C48.5128 144.031 48.327 144.568 48.1781 145.117Z" fill="#444053"/>
<path d="M17.4624 151.007C17.4624 151.007 23.5634 152.794 26.9271 152.583C29.875 152.4 29.435 149.554 29.2811 148.85C26.1928 148.753 20.8747 148.464 18.113 147.627C18.1059 147.629 18.0984 147.629 18.0914 147.627C17.3571 147.967 17.4624 151.007 17.4624 151.007Z" fill="#444053"/>
<path opacity="0.1" d="M48.1781 145.117C48.4939 152.165 56.4873 149.436 57.6454 148.483C57.8103 148.346 57.9604 148.192 58.0936 148.024C55.2995 149.052 50.3458 149.849 48.7342 143.508C48.5128 144.031 48.327 144.568 48.1781 145.117Z" fill="black"/>
<path opacity="0.1" d="M17.4624 151.007C17.4624 151.007 23.5634 152.794 26.9271 152.583C29.875 152.4 29.435 149.554 29.2811 148.85C26.1928 148.753 20.8747 148.464 18.113 147.627C18.1059 147.629 18.0984 147.629 18.0914 147.627C17.3571 147.967 17.4624 151.007 17.4624 151.007Z" fill="black"/>
<path d="M2.4177 172.992C5.67878 175.2 10.6244 174.148 10.6244 174.148C10.6244 174.148 18.0914 170.573 20.3023 170.573C22.5133 170.573 27.8665 168.362 27.8665 168.362L27.6857 166.875L26.8164 159.737C26.8164 159.737 18.6232 159.527 18.2939 158.79C18.2939 158.79 16.8226 155.167 16.2962 156.506C15.7698 157.845 7.88163 167.304 5.88125 167.304C4.9283 167.304 3.35445 168.093 2.32052 169.156C1.1948 170.336 0.711574 171.837 2.4177 172.992Z" fill="#67647E"/>
<path opacity="0.1" d="M30.7146 110.824C30.7146 110.824 37.5526 115.143 35.6602 116.082C33.7678 117.022 30.7146 110.824 30.7146 110.824Z" fill="black"/>
<path opacity="0.1" d="M27.8665 119.133C27.8665 119.133 33.757 124.727 31.5487 124.875C29.3405 125.024 27.8665 119.133 27.8665 119.133Z" fill="black"/>
<path opacity="0.1" d="M21.563 136.899C21.563 136.899 24.5542 142.522 23.4284 143.497C22.3027 144.471 21.563 136.899 21.563 136.899Z" fill="black"/>
<path opacity="0.1" d="M54.4897 142.592C53.4368 143.642 64.4781 139.121 61.9567 138.91C59.4353 138.7 54.4897 142.592 54.4897 142.592Z" fill="black"/>
<path d="M76.5775 63.6975L76.9312 63.6462C78.2377 63.4464 82.9809 62.7013 87.2354 61.7781C88.272 61.5513 89.2763 61.3164 90.2049 61.0735C93.4633 60.2204 95.65 59.2999 94.2543 58.544C92.4078 57.5424 91.4359 55.7229 90.923 54.1572C90.8744 54.0033 90.8285 53.8548 90.7853 53.7064C90.5588 52.9137 90.4167 52.0993 90.3615 51.2768C90.3615 51.2768 78.4834 47.0681 80.7888 51.2768C81.9254 53.3419 81.1614 55.0264 80.0897 56.2062C79.3528 56.9861 78.4859 57.6319 77.5278 58.1148L76.5775 63.6975Z" fill="#EFB7B9"/>
<path opacity="0.1" d="M89.306 60.4365C89.306 60.4365 85.0542 63.487 80.7106 60.9629C76.367 58.4388 70.6871 83.2641 70.6871 83.2641L64.7966 97.7796C64.7966 97.7796 60.9821 100.935 65.7307 102.304C70.4792 103.673 81.0129 100.935 83.6882 104.933C86.3635 108.932 91.4278 109.561 91.9462 109.561C92.4645 109.561 94.4676 94.5159 94.4676 94.5159L94.9886 72.7412L89.306 60.4365Z" fill="black"/>
<path d="M65.9304 101.462C70.679 102.828 81.2154 100.093 83.8906 104.091C85.0178 105.72 86.5918 106.989 88.4232 107.744C89.6055 108.275 90.8666 108.608 92.1567 108.732C92.2242 108.732 92.3241 108.462 92.4402 107.979C93.1799 104.933 94.6781 93.6871 94.6781 93.6871L95.1964 71.9124L90.1995 61.0736L89.5165 59.5942C88.847 60.0409 88.1207 60.3959 87.3569 60.6498C85.7129 61.2059 83.3345 61.519 80.9265 60.1099C79.6523 59.3702 78.262 60.9845 76.9366 63.6355C73.7403 70.0173 70.903 82.411 70.903 82.411L65.0072 96.9455C64.867 97.0658 64.7336 97.1937 64.6076 97.3288C63.7708 98.2035 62.2023 100.387 65.9304 101.462Z" fill="#F3F5F9"/>
<path opacity="0.1" d="M88.5636 102.193C88.3311 104.03 88.284 105.886 88.4232 107.733C88.5934 110.36 88.9234 112.974 89.4113 115.561C89.4416 115.724 89.4849 115.884 89.5408 116.039C92.1081 114.914 94.1463 114.09 94.1463 114.09L92.4402 107.973C93.1799 104.928 94.6781 93.6815 94.6781 93.6815L95.1964 71.9068L90.1995 61.0734C93.4579 60.2204 95.6446 59.2998 94.2489 58.5439C92.2242 57.4452 91.2497 55.3611 90.7799 53.7063C89.924 54.8994 88.9219 55.9805 87.7969 56.9242L87.7321 56.9782L87.3542 60.6496L87.2381 61.778L86.9951 64.1185C86.9951 64.1185 88.1533 91.7837 88.9928 93.3629C89.8324 94.9422 89.414 97.99 88.6797 101.567C88.6338 101.769 88.6068 101.977 88.5636 102.193Z" fill="black"/>
<path d="M89.0954 101.146C88.3611 104.723 88.9901 110.613 89.8324 115.135C90.6747 119.657 99.6156 116.714 101.3 115.135C102.985 113.556 107.925 112.821 107.925 112.821C107.925 112.821 108.135 92.2048 109.715 89.5755C110.462 88.3283 110.643 84.2573 110.624 80.324C110.611 76.793 110.435 73.3727 110.371 72.2253C110.355 71.9554 110.346 71.8069 110.346 71.8069C110.346 71.8069 117.182 60.2366 117.076 59.3889C116.971 58.5412 114.973 58.444 114.973 58.444C114.973 58.444 107.415 52.5536 106.138 53.2879C104.861 54.0222 101.403 52.1325 101.403 52.1325C101.403 52.1325 97.0051 52.6319 96.0954 51.7815C95.9832 51.6859 95.923 51.5426 95.9334 51.3955C96.036 50.0457 91.4521 47.1734 91.3091 47.0762C95.1748 50.5532 88.9253 55.9119 88.2154 56.5004L88.1506 56.5544L87.4136 63.6947C87.4136 63.6947 88.5717 91.3599 89.4113 92.9391C90.2508 94.5184 89.8324 97.5689 89.0954 101.146Z" fill="#67647E"/>
<circle cx="89.503" cy="71.0943" r="0.526416" fill="#444053"/>
<path opacity="0.1" d="M88.4259 56.9243L91.6222 60.0153L96.306 52.1865C96.1937 52.0909 96.1336 51.9476 96.144 51.8005C96.2466 50.4507 91.66 47.5784 91.5196 47.4812C95.3854 50.9771 89.1467 56.3358 88.4259 56.9243Z" fill="black"/>
<circle opacity="0.1" cx="90.5559" cy="87.9234" r="0.526416" fill="black"/>
<circle cx="90.5559" cy="87.7127" r="0.526416" fill="#444053"/>
<path d="M88.2154 56.5031L91.4116 59.5942L96.0954 51.7654C95.9832 51.6697 95.923 51.5265 95.9334 51.3794C96.036 50.0296 91.4521 47.1572 91.3091 47.0601C95.1748 50.556 88.9253 55.9119 88.2154 56.5031Z" fill="#67647E"/>
<path d="M92.2594 84.4169C92.2379 85.3555 91.4596 86.0991 90.5209 86.0776L86.6007 85.9879C85.6621 85.9665 84.9186 85.1882 84.94 84.2495L85.216 72.1842C85.2374 71.2455 86.0157 70.502 86.9544 70.5235L90.8746 70.6131C91.8132 70.6346 92.5567 71.4129 92.5353 72.3515L92.2594 84.4169Z" fill="#D1D9EC"/>
<path d="M92.2968 84.7589C92.2754 85.6976 91.4971 86.4411 90.5584 86.4196L86.6382 86.33C85.6996 86.3085 84.9561 85.5302 84.9775 84.5916L85.2534 72.5262C85.2749 71.5876 86.0532 70.844 86.9919 70.8655L90.9121 70.9552C91.8507 70.9766 92.5942 71.7549 92.5728 72.6936L92.2968 84.7589Z" fill="#DFE6F5"/>
<circle cx="88.9658" cy="75.4405" r="1.15002" fill="white"/>
<path opacity="0.1" d="M49.3335 100.198C51.9629 101.356 69.2158 98.3086 71.7399 97.569C74.264 96.8293 77.9489 91.1521 76.1591 87.0406C74.3693 82.9292 76.7881 78.9419 76.7881 78.9419C76.7881 78.9419 80.5675 70.8432 81.4178 69.264C82.2682 67.6847 84.0148 63.0928 84.2578 62.3234C84.2777 62.1487 84.2239 61.9736 84.1093 61.8402C83.4236 60.8063 80.778 58.9651 80.778 58.9651C80.0357 59.2351 79.9439 57.1051 79.9682 55.5421C79.9844 54.6674 80.0357 53.9709 80.0357 53.9709C80.0357 53.9709 79.6874 54.3246 79.1178 54.8078C78.9099 54.9833 78.6724 55.1777 78.4078 55.3774C77.4214 56.1677 76.3052 56.7806 75.1089 57.1888C72.5849 57.9366 69.0079 61.384 69.0079 61.384L70.0608 77.5382C70.0608 77.5382 67.6311 92.7313 65.1152 95.6766C62.5992 98.6218 55.0161 98.5165 52.492 98.5165C49.9679 98.5165 49.3335 100.198 49.3335 100.198Z" fill="black"/>
<path d="M49.1229 99.5694C51.7523 100.725 69.0052 97.6797 71.5293 96.9373C74.0534 96.1949 77.7383 90.5205 75.9485 86.409C74.1587 82.2976 76.5775 78.3103 76.5775 78.3103C76.5775 78.3103 80.3569 70.2116 81.2073 68.6324C82.0576 67.0531 83.8043 62.4612 84.0472 61.6918C84.0668 61.5171 84.013 61.3421 83.8987 61.2086C83.2076 60.1773 80.5756 58.3416 80.5756 58.3416C79.8332 58.6116 79.7414 56.4843 79.7657 54.9213C79.7819 54.0439 79.8332 53.3474 79.8332 53.3474C79.8332 53.3474 79.4849 53.7011 78.9153 54.187C78.7075 54.3597 78.4699 54.5541 78.2053 54.7539C77.214 55.5458 76.0922 56.1588 74.8903 56.5653C72.3662 57.3131 68.7893 60.7604 68.7893 60.7604L69.8421 76.9146C69.8421 76.9146 67.4125 92.1078 64.8965 95.053C62.3805 97.9983 54.8001 97.893 52.2733 97.893C49.7465 97.893 49.1229 99.5694 49.1229 99.5694Z" fill="#67647E"/>
<path opacity="0.1" d="M77.7356 53.7522C77.7356 53.7522 77.8355 54.3056 78.0056 55.1587C78.5725 58.0472 79.9223 64.3534 80.8968 64.1104C81.596 63.935 82.7865 62.6986 83.6936 61.6295C83.0106 60.5875 80.3704 58.7464 80.3704 58.7464C79.628 59.0164 79.5362 56.8891 79.5605 55.326L78.7102 54.5918L77.7356 53.7522Z" fill="black"/>
<path d="M77.9462 53.3394C77.9462 53.3394 78.0461 53.8928 78.2162 54.7458C78.7831 57.6344 80.1329 63.9406 81.1074 63.6976C81.8066 63.5221 82.9971 62.2857 83.9042 61.2167C83.2077 60.1774 80.5756 58.3417 80.5756 58.3417C79.8332 58.6116 79.7414 56.4844 79.7657 54.9213L78.9153 54.187L77.9462 53.3394Z" fill="#67647E"/>
<path d="M71.2135 84.3141C71.2135 84.3141 76.4749 83.264 77.9462 80.9504C79.4175 78.6369 89.4383 76.6311 88.2046 79.0607C86.9709 81.4904 77.9462 89.3974 77.9462 89.3974L74.0291 95.0044L68.7974 93.6762L66.5918 89.3866L71.2135 84.3141Z" fill="#EFB7B9"/>
<path opacity="0.1" d="M83.6585 90.3179C83.6585 90.3179 78.5644 92.2076 77.7977 94.7344C77.0311 97.2612 83.6585 90.3179 83.6585 90.3179Z" fill="black"/>
<path opacity="0.1" d="M86.7819 93.2578C86.7819 93.2578 87.2462 95.8845 80.8617 95.6874L86.7819 93.2578Z" fill="black"/>
<path opacity="0.1" d="M114.342 59.5941L116.658 59.3835C116.658 59.3835 119.182 61.2732 121.074 61.2732C122.967 61.2732 124.125 63.7029 124.125 63.7029C124.125 63.7029 127.281 65.1768 128.334 65.3874C129.386 65.5979 131.174 66.6481 130.647 67.0692C130.121 67.4903 130.752 68.4379 131.7 69.1722C132.648 69.9065 134.13 73.6967 132.855 74.2231C131.581 74.7495 128.123 75.7996 127.186 76.326C126.25 76.8524 125.083 76.326 125.083 76.326C125.083 76.326 119.511 69.0669 116.669 70.4356C113.826 71.8043 109.933 71.7962 109.933 71.7962L106.883 65.382L114.342 59.5941Z" fill="black"/>
<path d="M65.9304 94.2079C66.4271 94.9476 67.0696 95.4659 67.893 95.5712C69.952 95.8119 72.0385 95.6188 74.0183 95.0043C74.0183 95.0043 63.4225 91.6379 73.6242 83.4529H70.8976L69.9798 83.1073L70.3955 80.9288L70.9948 61.2786L68.7866 60.7522C68.7866 60.7522 67.0076 73.6912 66.5837 75.2678C66.1599 76.8443 65.8413 82.948 65.8413 82.948C65.8413 82.948 65.4202 85.4721 64.7885 86.7274C64.3107 87.6831 64.443 91.9619 65.9304 94.2079Z" fill="#67647E"/>
<path opacity="0.1" d="M66.3597 94.2081C66.8537 94.9478 67.4989 95.4661 68.3222 95.5714C70.3812 95.8121 72.4678 95.6189 74.4476 95.0044C74.4476 95.0044 63.8518 91.6381 74.0534 83.4476H71.3296L70.4198 83.1021C68.9 85.7611 66.5513 90.4827 66.3597 94.2081Z" fill="black"/>
<path d="M65.9304 94.208C66.4271 94.9477 67.0696 95.466 67.893 95.5713C69.952 95.812 72.0385 95.6189 74.0183 95.0044C74.0183 95.0044 63.4225 91.6381 73.6242 83.453H70.8976L69.9798 83.1074C68.4896 85.7611 66.1302 90.4826 65.9304 94.208Z" fill="#67647E"/>
<path opacity="0.1" d="M80.087 56.2143C83.7701 57.8853 88.106 57.062 90.9203 54.1572C90.8717 54.0033 90.8258 53.8548 90.7826 53.7064C90.5561 52.9137 90.414 52.0993 90.3588 51.2768C90.3588 51.2768 78.4807 47.0681 80.7861 51.2768C81.9227 53.35 81.1587 55.0345 80.087 56.2143Z" fill="black"/>
<path d="M74.4746 47.0762V47.1707C74.4746 47.4811 74.4962 47.7889 74.5285 48.0912C74.5609 48.3936 74.6041 48.6689 74.6581 48.9524C75.5068 53.1926 79.0922 56.3378 83.4068 56.6271C87.7214 56.9163 91.6945 54.2778 93.1016 50.1888C93.1664 50.0025 93.2231 49.8163 93.2743 49.6273C93.5052 48.7966 93.6214 47.9383 93.6199 47.0762C93.6199 46.8575 93.6199 46.6362 93.5956 46.4202C93.2292 41.2839 88.8653 37.3577 83.719 37.5343C78.5727 37.7108 74.4881 41.9269 74.4746 47.0762H74.4746Z" fill="#EFB7B9"/>
<path opacity="0.1" d="M74.4746 47.1707C74.5269 47.4745 74.545 47.7833 74.5285 48.0912C74.5253 48.2581 74.5344 48.425 74.5555 48.5906C74.5735 48.7152 74.608 48.8369 74.6581 48.9524C75.0442 49.8594 76.3076 50.4479 77.1417 49.8621C77.4629 49.599 77.7181 49.2643 77.8868 48.8849C78.7723 47.2409 80.0006 45.3512 81.9362 45.3188C82.7622 45.3026 83.537 45.6508 84.3361 45.8587C85.1351 46.0665 86.08 46.0854 86.6739 45.5428C87.1328 45.1244 87.3488 44.4117 87.9616 44.2659C88.5744 44.1202 89.1413 44.6817 89.4221 45.2324C89.7028 45.7831 89.9269 46.431 90.5019 46.7171C90.7556 46.8413 91.0418 46.8791 91.3118 47.0141C92.4564 47.6404 91.93 49.8351 93.1178 50.1915C93.1549 50.203 93.1928 50.212 93.2312 50.2185C93.25 50.0241 93.2716 49.8243 93.2905 49.63C93.3985 48.5609 93.5056 47.4919 93.6118 46.4229C93.2454 41.2866 88.8815 37.3604 83.7352 37.537C78.5889 37.7135 74.5043 41.9296 74.4908 47.0789L74.4746 47.1707Z" fill="black"/>
<path d="M91.4791 32.7875C92.6048 33.2653 93.7765 33.9996 94.0275 35.1469C94.1382 35.6517 94.0545 36.1755 94.0815 36.6884C94.1355 37.725 94.6214 38.6861 94.9427 39.6795C95.2639 40.6729 95.3719 41.8392 94.7402 42.676C94.5431 42.946 94.2813 43.1592 94.1031 43.4346C93.8707 43.8686 93.7449 44.3516 93.736 44.8438L93.215 50.0215C91.8814 49.7705 92.4753 47.457 91.2929 46.8145C91.0472 46.6795 90.7529 46.6417 90.4965 46.5148C89.9269 46.2448 89.7055 45.5835 89.4167 45.0327C89.1278 44.482 88.5798 43.9178 87.9562 44.0663C87.3326 44.2148 87.1274 44.9275 86.6712 45.3432C86.0746 45.8831 85.127 45.8615 84.3307 45.659C83.5343 45.4566 82.7568 45.1191 81.9335 45.1191C79.9952 45.1515 78.7642 47.0412 77.8841 48.6853C77.7147 49.0658 77.4586 49.4014 77.1363 49.6652C76.1969 50.3239 74.7067 49.4924 74.5528 48.391C74.4611 47.7728 74.6554 47.0844 74.2991 46.5607C73.9427 46.037 73.1707 45.9263 72.5687 45.6455C71.0299 44.9383 70.5548 43.0189 70.8085 41.4099C70.9948 40.2491 71.4564 39.0559 71.0785 37.9383C70.9462 37.5522 70.7222 37.2013 70.6007 36.8153C70.2632 35.7354 70.8139 34.5368 71.6805 33.7674C72.5471 32.9981 73.6836 32.5742 74.8012 32.2017C77.6708 31.2379 80.6836 30.312 83.7368 30.1122C85.0731 30.0258 86.8251 29.6074 87.886 30.4416C89.1467 31.408 89.9242 32.1288 91.4791 32.7875Z" fill="#585268"/>
<circle opacity="0.1" cx="88.9766" cy="62.7823" r="0.526416" fill="black"/>
<circle cx="88.9766" cy="62.5718" r="0.526416" fill="#444053"/>
<circle opacity="0.1" cx="92.343" cy="95.8143" r="0.526416" fill="black"/>
<circle cx="92.343" cy="95.6036" r="0.526416" fill="#444053"/>
<circle opacity="0.1" cx="90.5559" cy="104.545" r="0.526416" fill="black"/>
<circle cx="90.5559" cy="104.334" r="0.526416" fill="#444053"/>
<path opacity="0.1" d="M72.4769 71.0942C72.4769 71.0942 71.3188 78.95 72.4769 80.3187C73.635 81.6873 72.4769 71.0942 72.4769 71.0942Z" fill="black"/>
<path opacity="0.1" d="M106.875 85.6829C106.875 85.6829 109.083 90.4422 106.875 95.0045C104.667 99.5667 103.298 101.421 104.035 104.334C104.772 107.247 106.875 85.6829 106.875 85.6829Z" fill="black"/>
<path opacity="0.1" d="M2.4177 172.992C5.67878 175.2 10.6244 174.148 10.6244 174.148C10.6244 174.148 18.0914 170.573 20.3023 170.573C22.5133 170.573 27.8665 168.362 27.8665 168.362L27.6857 166.875C25.5071 167.293 20.5507 168.295 19.9784 168.784C19.2414 169.415 10.1952 172.466 10.1952 172.466C10.1952 172.466 4.03474 171.696 2.32052 169.164C1.1948 170.336 0.711574 171.837 2.4177 172.992Z" fill="black"/>
<g opacity="0.1">
<path d="M94.0815 35.846C94.0815 35.7326 94.0815 35.6193 94.0815 35.5032C94.0815 35.6355 94.0815 35.7731 94.0815 35.8973C94.0869 35.8811 94.0815 35.8649 94.0815 35.846Z" fill="black"/>
<path d="M72.5714 44.7951C73.1734 45.065 73.9211 45.173 74.3018 45.7075C74.6824 46.242 74.4638 46.9196 74.5555 47.5378C74.7148 48.6393 76.1996 49.4734 77.139 48.812C77.4613 48.5482 77.7174 48.2126 77.8868 47.8321C78.7696 46.188 80.0006 44.2983 81.9362 44.266C82.7622 44.2525 83.537 44.6007 84.3361 44.8059C85.1351 45.011 86.08 45.0326 86.6766 44.49C87.1328 44.0743 87.3488 43.3589 87.9616 43.2131C88.5744 43.0673 89.1386 43.6289 89.4221 44.1796C89.7055 44.7303 89.9269 45.3782 90.5019 45.6643C90.7556 45.7885 91.0418 45.8263 91.2983 45.9613C92.4807 46.6065 91.8868 48.9308 93.2204 49.1684C93.4003 47.4406 93.574 45.7147 93.7414 43.9906C93.7524 43.5039 93.8782 43.0266 94.1085 42.5976C94.2867 42.3277 94.5485 42.1009 94.7456 41.8363C94.9841 41.5096 95.133 41.1262 95.1775 40.7241C95.2893 41.4069 95.1347 42.1065 94.7456 42.6786C94.5485 42.9486 94.2867 43.1618 94.1085 43.4372C93.8747 43.8699 93.747 44.3519 93.736 44.8437C93.556 46.5696 93.3823 48.2955 93.215 50.0214C91.8814 49.7704 92.4753 47.4568 91.2929 46.8143C91.0472 46.6794 90.7529 46.6416 90.4965 46.5147C89.9269 46.2447 89.7055 45.5833 89.4167 45.0326C89.1278 44.4819 88.5798 43.9177 87.9562 44.0662C87.3326 44.2147 87.1274 44.9273 86.6712 45.3431C86.0746 45.883 85.127 45.8614 84.3307 45.6589C83.5343 45.4565 82.7568 45.119 81.9308 45.119C79.9952 45.1514 78.7642 47.0411 77.8814 48.6851C77.712 49.0656 77.4559 49.4012 77.1336 49.6651C76.1942 50.3238 74.704 49.4923 74.5501 48.3909C74.4584 47.7727 74.6527 47.0843 74.2964 46.5606C73.94 46.0369 73.168 45.9262 72.566 45.6454C71.1595 44.9975 70.6412 43.3373 70.7599 41.8282C70.8679 43.0619 71.424 44.266 72.5714 44.7951Z" fill="black"/>
<path d="M70.6034 35.962C70.7249 36.348 70.9489 36.7017 71.0812 37.085C71.2205 37.5326 71.2611 38.0051 71.2 38.4699C71.179 38.2863 71.1392 38.1054 71.0812 37.93C70.9489 37.544 70.7249 37.193 70.6034 36.807C70.4968 36.4507 70.4755 36.0743 70.5413 35.7083C70.557 35.794 70.5777 35.8787 70.6034 35.962Z" fill="black"/>
</g>
<path d="M129.948 122.605L108.265 119.892C107.953 119.853 107.69 119.642 107.586 119.345C107.481 119.049 107.553 118.719 107.771 118.493L116.866 109.045C117.045 108.859 117.3 108.767 117.557 108.797L134.135 110.654C134.39 110.683 134.618 110.828 134.751 111.048C134.885 111.268 134.908 111.537 134.815 111.777L130.825 122.087C130.685 122.439 130.324 122.653 129.948 122.605Z" fill="#746D83"/>
<path opacity="0.1" d="M129.948 122.605L108.265 119.892C107.953 119.853 107.69 119.642 107.586 119.345C107.481 119.049 107.553 118.719 107.771 118.493L116.866 109.045C117.045 108.859 117.3 108.767 117.557 108.797L134.135 110.654C134.39 110.683 134.618 110.828 134.751 111.048C134.885 111.268 134.908 111.537 134.815 111.777L130.825 122.087C130.685 122.439 130.324 122.653 129.948 122.605Z" fill="black"/>
<path d="M129.702 122.362L108.022 119.638C107.71 119.598 107.448 119.386 107.343 119.09C107.239 118.793 107.31 118.463 107.528 118.237L116.623 108.788C116.802 108.602 117.057 108.51 117.314 108.537L133.889 110.395C134.145 110.423 134.374 110.569 134.508 110.79C134.641 111.01 134.665 111.28 134.572 111.52L130.58 121.83C130.444 122.187 130.082 122.406 129.702 122.362Z" fill="#746D83"/>
<path d="M116.782 112.489L123.294 113.013L132.58 112.408H132.421L123.817 111.577C121.847 110.853 123.213 106.594 123.213 106.594L116.623 106.928L116.096 106.955C113.767 112.408 116.782 112.489 116.782 112.489Z" fill="#D1D9EC"/>
<path opacity="0.1" d="M116.782 112.49L123.294 113.013L132.58 112.409H132.421L123.032 112.743L116.742 112.06C114.955 111.591 115.978 108.492 116.623 106.931L116.096 106.958C113.767 112.409 116.782 112.49 116.782 112.49Z" fill="black"/>
<path d="M105.376 73.7697L107.369 102.345L107.639 106.094C107.695 106.954 108.413 107.619 109.275 107.609H109.879L139.872 107.428C140.108 107.425 140.333 107.324 140.491 107.148C140.649 106.972 140.726 106.737 140.703 106.502L140.433 102.75L138.322 77.622C138.255 76.9529 137.805 76.384 137.169 76.1642L108.584 71.8773C107.612 71.5399 106.621 71.6587 106.003 72.1743C105.54 72.5677 105.305 73.1666 105.376 73.7697Z" fill="#4C4C56"/>
<path d="M107.369 102.344L107.639 106.094C107.695 106.954 108.413 107.619 109.275 107.609H109.879L139.872 107.428C140.108 107.425 140.333 107.323 140.491 107.147C140.649 106.971 140.726 106.737 140.703 106.502L140.433 102.749L107.369 102.344Z" fill="#DFE6F5"/>
<ellipse cx="127.475" cy="105.454" rx="0.402236" ry="0.804471" fill="white"/>
<path d="M126.309 116.147C126.309 116.147 118.108 113.051 115.897 115.302C115.897 115.302 115.535 115.988 117.022 116.147L123.032 116.631C123.032 116.631 125.504 116.871 126.309 116.147Z" fill="#D1D9EC"/>
<path d="M126.09 115.343C124.471 114.684 119.63 112.981 116.526 114.865C116.526 114.865 119.96 114.484 121.847 115.575C123.734 116.666 126.309 116.147 126.309 116.147L126.347 116.08C126.42 115.95 126.434 115.795 126.384 115.654C126.335 115.513 126.228 115.4 126.09 115.343Z" fill="#DFE6F5"/>
<path d="M105.377 73.7695L107.628 106.1C107.684 106.959 108.403 107.624 109.264 107.614H109.869C109.454 107.219 109.101 106.764 108.821 106.264C108.821 106.264 106.61 73.7776 106.448 72.9731C106.377 72.672 106.223 72.3969 106.003 72.1794C105.542 72.5718 105.307 73.1682 105.377 73.7695Z" fill="#DFE6F5"/>
<path opacity="0.1" d="M105.377 73.7695L107.628 106.1C107.684 106.959 108.403 107.624 109.264 107.614H109.869C109.454 107.219 109.101 106.764 108.821 106.264C108.821 106.264 106.61 73.7776 106.448 72.9731C106.377 72.672 106.223 72.3969 106.003 72.1794C105.542 72.5718 105.307 73.1682 105.377 73.7695Z" fill="black"/>
<path opacity="0.1" d="M101.508 82.7321C103.938 82.1921 109.607 80.5292 109.607 80.5292L110.622 80.324C110.608 76.793 110.433 73.3727 110.368 72.2253H110.344C110.344 72.2253 105.503 73.8046 104.348 74.655C103.193 75.5053 99.6129 75.284 99.6129 75.284C99.6129 75.284 94.041 75.5836 89.4167 80.7479C84.7923 85.9121 99.0892 83.2639 101.508 82.7321Z" fill="black"/>
<path d="M125.154 73.3457C125.593 73.5467 125.899 73.9592 125.963 74.4382C126.027 74.9173 125.841 75.3957 125.469 75.7051C124.187 76.7661 122.316 78.0349 120.529 78.213C117.56 78.5127 110.379 79.9516 109.666 80.1027C109.628 80.1092 109.59 80.1182 109.553 80.1297C108.962 80.3025 103.789 81.817 101.508 82.3164C99.0784 82.8563 84.7707 85.4776 89.4113 80.3241C93.6712 75.5783 98.7329 74.925 99.513 74.8629C99.575 74.8575 99.6373 74.8575 99.6993 74.8629C100.239 74.8872 103.295 74.9925 104.351 74.2285C104.9 73.8835 105.483 73.5933 106.089 73.3619C108.377 72.4154 110.762 71.7273 113.203 71.3102L118.151 70.4464C118.433 70.3979 118.722 70.4355 118.982 70.5544L125.154 73.3457Z" fill="#EFB7B9"/>
<path d="M114.763 59.5941L117.076 59.3835C117.076 59.3835 119.603 61.2732 121.496 61.2732C123.388 61.2732 124.546 63.7029 124.546 63.7029C124.546 63.7029 127.702 65.1768 128.755 65.3874C129.808 65.5979 131.595 66.6481 131.068 67.0692C130.542 67.4903 131.174 68.4379 132.121 69.1722C133.069 69.9065 134.551 73.6967 133.277 74.2231C132.002 74.7495 128.544 75.7996 127.607 76.326C126.671 76.8524 125.504 76.326 125.504 76.326C125.504 76.326 119.922 69.0615 117.079 70.4302C114.236 71.7989 110.346 71.7962 110.346 71.7962L107.296 65.382L114.763 59.5941Z" fill="#67647E"/>
<path d="M253.28 191.873C253.021 192.227 252.815 192.617 252.668 193.031C252.627 193.131 252.592 193.247 252.554 193.358C252.486 193.326 252.414 193.301 252.341 193.282C252.026 193.203 251.701 193.175 251.377 193.201C251.377 193.074 251.377 192.945 251.396 192.804C251.434 191.382 251.267 189.4 249.911 190.24C248.607 191.05 249.536 192.399 250.376 193.263L250.592 193.476C249.828 194.016 249.682 195.293 249.552 196.619C249.423 197.944 248.3 199.394 247.555 200.217C247.479 200.304 247.409 200.377 247.344 200.447C246.736 199.963 245.951 199.759 245.184 199.888L245.085 199.524C244.48 197.34 243.225 193.557 241.624 192.729C241.691 192.645 241.761 192.559 241.834 192.459C242.515 191.571 243.279 190.248 242.147 189.91C241.016 189.573 240.916 191.058 240.978 192.167C240.978 192.308 240.989 192.44 241.011 192.564C240.553 192.585 240.124 192.794 239.826 193.142L239.653 192.934C238.735 191.854 237.051 190.134 236.543 191.433C236.068 192.642 237.55 194.213 238.592 195.123L238.657 195.18C237.955 198.017 241.011 200.331 242.655 201.343L242.865 201.473C240.598 204.145 239.199 209.156 239.199 209.156L245.549 210.289C245.549 210.289 249.757 206.656 249.22 203.244H249.263C253.469 202.401 254.428 197.915 253.772 195.253L253.847 195.22C254.613 194.906 255.284 194.398 255.794 193.746C256.957 192.113 254.487 190.267 253.28 191.873Z" fill="#FFAB2B"/>
<path opacity="0.1" d="M253.28 191.873C253.021 192.227 252.815 192.617 252.668 193.031C252.627 193.131 252.592 193.247 252.554 193.358C252.486 193.326 252.414 193.301 252.341 193.282C252.026 193.203 251.701 193.175 251.377 193.201C251.377 193.074 251.377 192.945 251.396 192.804C251.434 191.382 251.267 189.4 249.911 190.24C248.607 191.05 249.536 192.399 250.376 193.263L250.592 193.476C249.828 194.016 249.682 195.293 249.552 196.619C249.423 197.944 248.3 199.394 247.555 200.217C247.479 200.304 247.409 200.377 247.344 200.447C246.736 199.963 245.951 199.759 245.184 199.888L245.085 199.524C244.48 197.34 243.225 193.557 241.624 192.729C241.691 192.645 241.761 192.559 241.834 192.459C242.515 191.571 243.279 190.248 242.147 189.91C241.016 189.573 240.916 191.058 240.978 192.167C240.978 192.308 240.989 192.44 241.011 192.564C240.553 192.585 240.124 192.794 239.826 193.142L239.653 192.934C238.735 191.854 237.051 190.134 236.543 191.433C236.068 192.642 237.55 194.213 238.592 195.123L238.657 195.18C237.955 198.017 241.011 200.331 242.655 201.343L242.865 201.473C240.598 204.145 239.199 209.156 239.199 209.156L245.549 210.289C245.549 210.289 249.757 206.656 249.22 203.244H249.263C253.469 202.401 254.428 197.915 253.772 195.253L253.847 195.22C254.613 194.906 255.284 194.398 255.794 193.746C256.957 192.113 254.487 190.267 253.28 191.873Z" fill="black"/>
<path d="M240.638 193.703L239.896 195.877C239.896 195.877 239.486 195.585 238.965 195.126C237.923 194.216 236.44 192.645 236.916 191.436C237.423 190.137 239.108 191.851 240.026 192.937C240.395 193.369 240.638 193.703 240.638 193.703Z" fill="#FFAB2B"/>
<path d="M242.212 192.461C241.985 192.761 241.742 193.047 241.483 193.32C241.418 192.941 241.374 192.559 241.351 192.175C241.289 191.066 241.405 189.586 242.52 189.918C243.635 190.25 242.887 191.573 242.212 192.461Z" fill="#FFAB2B"/>
<path d="M251.782 192.804C251.758 193.52 251.688 194.092 251.688 194.092C251.361 193.837 251.052 193.56 250.762 193.263C249.922 192.394 248.993 191.047 250.297 190.24C251.661 189.4 251.82 191.382 251.782 192.804Z" fill="#FFAB2B"/>
<path d="M256.166 193.741C255.656 194.393 254.985 194.901 254.22 195.215C254.008 195.309 253.789 195.388 253.567 195.452L252.692 194.224C252.784 193.818 252.905 193.42 253.054 193.031C253.201 192.617 253.407 192.227 253.666 191.873C254.876 190.267 257.346 192.113 256.166 193.741Z" fill="#FFAB2B"/>
<path opacity="0.1" d="M240.026 192.937C240.395 193.368 240.638 193.703 240.638 193.703L239.896 195.876C239.896 195.876 239.486 195.585 238.965 195.126C239.079 194.43 239.366 193.774 239.799 193.217C239.874 193.115 239.953 193.023 240.026 192.937Z" fill="black"/>
<path opacity="0.1" d="M242.212 192.461C241.985 192.761 241.742 193.047 241.483 193.32C241.418 192.941 241.374 192.559 241.351 192.175C241.661 192.179 241.962 192.279 242.212 192.461Z" fill="black"/>
<path d="M245.857 201.089L244.01 201.899C243.673 201.73 243.345 201.545 243.027 201.343C241.086 200.15 237.183 197.145 239.788 193.603C242.393 190.061 244.585 196.414 245.457 199.521C245.722 200.452 245.857 201.089 245.857 201.089Z" fill="#FFAB2B"/>
<path opacity="0.1" d="M250.762 193.263C251.032 192.987 251.396 192.823 251.782 192.804C251.758 193.52 251.688 194.092 251.688 194.092C251.361 193.836 251.052 193.56 250.762 193.263Z" fill="black"/>
<path opacity="0.1" d="M254.22 195.21C254.008 195.303 253.789 195.383 253.567 195.447L252.692 194.219C252.784 193.813 252.905 193.414 253.054 193.026C253.618 193.36 254.034 194.181 254.22 195.21Z" fill="black"/>
<path d="M249.636 203.238C249.533 203.26 249.431 203.279 249.326 203.295C243.135 204.234 247.285 200.895 247.285 200.895C247.285 200.895 247.555 200.639 247.941 200.217C248.686 199.408 249.811 197.952 249.938 196.619C250.133 194.613 250.359 192.732 252.727 193.282C255.051 193.828 255.494 202.067 249.636 203.238Z" fill="#FFAB2B"/>
<rect x="237.693" y="218.65" width="11.8268" height="3.1099" fill="#D4DFEC"/>
<rect x="235.814" y="208.543" width="15.4523" height="10.8523" fill="#D4DFEC"/>
<rect opacity="0.1" x="237.693" y="218.65" width="11.8268" height="3.1099" fill="black"/>
<rect opacity="0.1" x="235.814" y="208.543" width="15.4523" height="10.8523" fill="black"/>
<rect x="238.471" y="218.65" width="11.8268" height="3.1099" fill="#D4DFEC"/>
<path opacity="0.1" d="M245.452 199.529C245.722 200.457 245.851 201.095 245.851 201.095L244.005 201.904C243.668 201.736 243.34 201.55 243.022 201.348C243.751 200.428 244.566 199.737 245.452 199.529Z" fill="black"/>
<path opacity="0.1" d="M249.636 203.238C249.533 203.26 249.431 203.279 249.326 203.295C243.135 204.234 247.285 200.895 247.285 200.895C247.285 200.895 247.555 200.638 247.941 200.217C249.096 201.149 249.574 202.185 249.636 203.238Z" fill="black"/>
<path d="M239.572 209.158C239.572 209.158 243.038 196.74 247.897 200.574C252.757 204.407 245.921 210.292 245.921 210.292L239.572 209.158Z" fill="#FFAB2B"/>
<circle opacity="0.1" cx="241.321" cy="195.55" r="0.388738" fill="black"/>
<circle opacity="0.1" cx="241.289" cy="197.364" r="0.388738" fill="black"/>
<circle opacity="0.1" cx="252.562" cy="195.906" r="0.388738" fill="black"/>
<circle opacity="0.1" cx="243.492" cy="205.206" r="0.388738" fill="black"/>
<circle opacity="0.1" cx="251.752" cy="198.919" r="0.388738" fill="black"/>
<circle opacity="0.1" cx="247.735" cy="202.939" r="0.388738" fill="black"/>
<circle opacity="0.1" cx="242.65" cy="196.327" r="0.388738" fill="black"/>
<circle opacity="0.1" cx="251.493" cy="197.072" r="0.388738" fill="black"/>
<circle opacity="0.1" cx="250.165" cy="200.085" r="0.388738" fill="black"/>
<circle opacity="0.1" cx="246.083" cy="204.915" r="0.388738" fill="black"/>
<circle opacity="0.1" cx="245.241" cy="203.003" r="0.388738" fill="black"/>
<circle opacity="0.1" cx="243.233" cy="198.692" r="0.388738" fill="black"/>
<rect opacity="0.1" x="238.471" y="218.65" width="11.8268" height="1.13652" fill="black"/>
<rect x="236.592" y="208.543" width="15.4523" height="10.8523" fill="#D4DFEC"/>
<circle opacity="0.1" cx="246.602" cy="206.664" r="0.388738" fill="black"/>
<circle opacity="0.1" cx="244.269" cy="207.15" r="0.388738" fill="black"/>
<defs>
<linearGradient id="paint0_linear_386_1902" x1="134.976" y1="174.884" x2="134.976" y2="29.2995" gradientUnits="userSpaceOnUse">
<stop stop-color="#808080" stop-opacity="0.25"/>
<stop offset="0.54" stop-color="#808080" stop-opacity="0.12"/>
<stop offset="1" stop-color="#808080" stop-opacity="0.1"/>
</linearGradient>
</defs>
</svg>
