<svg width="183" height="130" viewBox="0 0 183 130" fill="none" xmlns="http://www.w3.org/2000/svg">
<ellipse opacity="0.1" cx="81.4902" cy="110.617" rx="81.4902" ry="19.2919" fill="#FFAB2B"/>
<path d="M19.937 58.0229C19.937 58.0229 27.5273 65.6132 23.243 76.8809C18.9588 88.1487 30.5884 106.874 30.5884 106.874C30.5884 106.874 30.4635 106.856 30.2329 106.815C14.6441 104.059 6.89697 86.2307 15.5663 72.9841C18.7891 68.0595 21.4275 62.2831 19.937 58.0229Z" fill="#FFAB2B"/>
<path d="M19.9372 58.0229C19.9372 58.0229 24.2214 67.3262 19.9372 74.9165C15.6529 82.5068 19.2023 103.809 30.5885 106.871" stroke="#535461" stroke-width="2"/>
<path d="M6.41846 88.7282C6.41846 88.7282 15.0798 87.3482 15.8643 95.1113C16.6488 102.875 32.5145 103.949 32.5145 103.949C32.5145 103.949 32.4105 104.019 32.2167 104.147C19.1271 112.743 6.60417 109.619 8.49173 98.2012C9.19296 93.9554 9.13693 89.6888 6.41846 88.7282Z" fill="#FFAB2B"/>
<path opacity="0.2" d="M6.41846 88.7282C6.41846 88.7282 15.0798 87.3482 15.8643 95.1113C16.6488 102.875 32.5145 103.949 32.5145 103.949C32.5145 103.949 32.4105 104.019 32.2167 104.147C19.1271 112.743 6.60417 109.619 8.49173 98.2012C9.19296 93.9554 9.13693 89.6888 6.41846 88.7282Z" fill="#F5F5F5"/>
<path d="M6.41846 88.7282C6.41846 88.7282 13.1426 90.2043 12.5887 96.3169C12.0347 102.429 22.5724 109.765 32.5225 103.949" stroke="#535461" stroke-width="2"/>
<path opacity="0.1" d="M182.261 57.9301C181.148 63.383 175.436 66.1175 172.236 70.1856C166.205 77.8527 168.553 89.0516 172.38 98.0203C173.66 101.024 175.114 104.202 174.571 107.421C173.91 111.36 170.396 114.238 166.706 115.766C159.982 118.547 151.929 117.884 145.747 114.038C140.406 110.716 136.58 105.311 131.148 102.14C122.056 96.8324 110.484 98.8368 100.611 102.493C93.6272 105.079 85.9905 108.444 79.0502 105.74C74.1672 103.838 70.7907 99.2083 68.9512 94.3012C68.0643 91.9318 67.4191 89.367 65.7236 87.4891C64.715 86.3684 63.399 85.5791 62.0526 84.9115C49.7442 78.8085 34.1954 82.0777 22.2473 75.3055C14.1751 70.7347 9.00552 62.1134 6.71771 53.1223C4.42991 44.1312 4.69567 34.711 5.27683 25.4445C5.68988 18.8644 6.43114 11.8361 10.6353 6.76097C15.0829 1.39287 22.7084 -0.606762 29.615 0.416267C36.5217 1.4393 42.7671 5.07674 48.2697 9.36257C55.1539 14.7211 61.5226 21.3908 69.9646 23.5617C75.7138 25.0394 81.7607 24.2309 87.6907 23.9508C97.604 23.4833 107.521 24.5239 117.378 25.6638C122.181 26.2193 127 26.8021 131.761 27.6474C132.828 27.8363 133.896 28.0397 134.963 28.2574C135.497 28.3641 136.03 28.4783 136.564 28.6C136.98 28.6913 137.395 28.7873 137.81 28.885C138.464 29.0387 139.116 29.1988 139.766 29.3653C141.633 29.8456 143.482 30.3979 145.312 31.0223C151.674 33.1948 156.775 37.1381 162.783 39.8934C166.699 41.6897 170.969 42.186 174.677 44.4722C179.245 47.2931 183.431 52.1953 182.261 57.9301Z" fill="#FFAB2B"/>
<path d="M97.0421 103.26C97.0421 103.26 103.622 102.738 105.516 105.002C107.41 107.266 114.171 112.456 111.381 113.612C108.59 114.768 93.6096 110.153 93.6096 110.153L97.0421 103.26Z" fill="#FFB9B9"/>
<path d="M69.9903 24.4583C69.8751 22.903 68.7254 21.6211 67.1918 21.3379C66.1896 21.1778 65.0705 21.4612 64.2092 20.9217C63.8201 20.6767 63.5416 20.2941 63.2278 19.9611C61.9982 18.6467 60.1523 18.0399 58.3528 17.9871C56.5533 17.9343 54.7794 18.3697 53.0503 18.8676C49.5986 19.8618 45.9515 21.3203 44.1152 24.407C41.3231 29.1059 43.8991 35.4394 41.6913 40.4393C40.7307 42.623 38.8992 44.4065 38.3036 46.7184C37.5031 49.8067 39.0817 52.9398 40.2969 55.8888C41.3869 58.5337 42.2149 61.2792 42.7688 64.0859C43.2571 66.5642 43.5292 69.1402 42.9785 71.6105C42.7368 72.6912 42.3381 73.791 42.5526 74.8765C42.8728 76.5191 44.461 77.5549 45.9051 78.3987L46.2813 78.6196C48.3626 79.8363 50.5031 81.0787 52.887 81.3797C54.3679 81.5654 55.9289 81.3605 57.2097 80.6032C58.4905 79.846 59.4655 78.4947 59.5743 77.0074C59.696 75.3248 58.7594 73.7494 58.5577 72.0732C58.5114 71.8206 58.5307 71.5604 58.6137 71.3175C58.7466 70.9973 59.0556 70.7908 59.3406 70.5923C63.4455 67.7297 65.6469 62.3728 64.7391 57.4514C64.1211 54.0989 62.1999 50.7657 63.1301 47.4852C63.644 45.6729 64.968 44.2048 65.7109 42.4742C66.4958 40.6257 66.5934 38.5575 65.9863 36.6434C65.562 35.321 64.7935 34.0001 65.0577 32.6409C65.5236 30.2266 68.74 29.4565 69.9551 27.3176C70.8565 25.7262 70.3233 23.4753 68.8024 22.4634" fill="#B96B6B"/>
<path opacity="0.1" d="M69.9903 24.4583C69.8751 22.903 68.7254 21.6211 67.1918 21.3379C66.1896 21.1778 65.0705 21.4612 64.2092 20.9217C63.8201 20.6767 63.5416 20.2941 63.2278 19.9611C61.9982 18.6467 60.1523 18.0399 58.3528 17.9871C56.5533 17.9343 54.7794 18.3697 53.0503 18.8676C49.5986 19.8618 45.9515 21.3203 44.1152 24.407C41.3231 29.1059 43.8991 35.4394 41.6913 40.4393C40.7307 42.623 38.8992 44.4065 38.3036 46.7184C37.5031 49.8067 39.0817 52.9398 40.2969 55.8888C41.3869 58.5337 42.2149 61.2792 42.7688 64.0859C43.2571 66.5642 43.5292 69.1402 42.9785 71.6105C42.7368 72.6912 42.3381 73.791 42.5526 74.8765C42.8728 76.5191 44.461 77.5549 45.9051 78.3987L46.2813 78.6196C48.3626 79.8363 50.5031 81.0787 52.887 81.3797C54.3679 81.5654 55.9289 81.3605 57.2097 80.6032C58.4905 79.846 59.4655 78.4947 59.5743 77.0074C59.696 75.3248 58.7594 73.7494 58.5577 72.0732C58.5114 71.8206 58.5307 71.5604 58.6137 71.3175C58.7466 70.9973 59.0556 70.7908 59.3406 70.5923C63.4455 67.7297 65.6469 62.3728 64.7391 57.4514C64.1211 54.0989 62.1999 50.7657 63.1301 47.4852C63.644 45.6729 64.968 44.2048 65.7109 42.4742C66.4958 40.6257 66.5934 38.5575 65.9863 36.6434C65.562 35.321 64.7935 34.0001 65.0577 32.6409C65.5236 30.2266 68.74 29.4565 69.9551 27.3176C70.8565 25.7262 70.3233 23.4753 68.8024 22.4634" fill="black"/>
<path d="M76.6072 108.376H42.186V89.9642L61.3979 97.3287L76.6072 89.9642V108.376Z" fill="#777B9B"/>
<path opacity="0.1" d="M76.6072 108.376H42.186V89.9642L61.3979 97.3287L76.6072 89.9642V108.376Z" fill="black"/>
<path d="M72.4446 110.145C72.4446 110.145 66.2007 111.637 65.5603 114.371C64.9199 117.106 69.2426 116.858 69.2426 116.858C69.2426 116.858 75.3263 115.614 76.1268 110.641C76.9273 105.668 72.4446 110.145 72.4446 110.145Z" fill="#FFB9B9"/>
<path opacity="0.1" d="M72.4446 110.145C72.4446 110.145 66.2007 111.637 65.5603 114.371C64.9199 117.106 69.2426 116.858 69.2426 116.858C69.2426 116.858 75.3263 115.614 76.1268 110.641C76.9273 105.668 72.4446 110.145 72.4446 110.145Z" fill="black"/>
<path d="M55.6776 118.479C55.6776 118.479 49.7908 118.862 49.7107 123.638C49.6995 124.278 55.8425 124.464 63.135 120.543C70.4275 116.622 70.9238 116.209 70.9238 116.209C70.9238 116.209 68.106 111.669 66.1208 111.051C64.1356 110.433 55.6776 118.479 55.6776 118.479Z" fill="#CBCDDA"/>
<path d="M21.2131 100.209C21.2131 100.209 14.489 105.812 26.9767 113.657C39.4644 121.502 51.4718 120.061 51.4718 120.061C51.4718 120.061 64.4974 118.519 66.4698 112.405C68.4422 106.291 56.755 101.169 56.755 101.169C56.755 101.169 43.9471 101.169 38.1836 97.4872C32.42 93.8049 21.2131 100.209 21.2131 100.209Z" fill="#777B9B"/>
<path d="M57.5555 90.603C57.5555 90.603 63.319 93.965 71.1639 90.603C77.1996 88.0158 90.4397 89.0308 96.2241 89.6424C98.9362 89.9257 101.259 91.7941 102 94.4181C102.606 96.5586 102.161 99.189 98.5391 101.655C90.5342 107.098 84.9307 108.699 82.8495 110.94C80.7682 113.182 74.8445 114.302 74.8445 114.302C74.8445 114.302 67.3199 113.182 67.3199 111.581C67.3199 109.98 74.2041 102.135 74.2041 102.135C74.2041 102.135 64.1179 111.421 53.7115 98.9329C43.3051 86.4452 57.5555 90.603 57.5555 90.603Z" fill="#777B9B"/>
<path d="M54.6736 68.0291L34.3411 54.1005C34.3411 54.1005 44.0943 47.4868 44.9316 41.576C45.1218 40.4237 44.8856 39.2415 44.2672 38.2508C40.2647 31.8468 58.3558 38.2508 58.3558 38.2508C58.4727 39.9183 58.7 41.5763 59.0363 43.2138C59.8223 47.1122 61.481 52.3042 64.9199 54.901C70.8435 59.3838 54.6736 68.0291 54.6736 68.0291Z" fill="#FFB9B9"/>
<path opacity="0.1" d="M59.0364 43.2074C54.493 45.85 48.752 45.1859 44.9317 41.576C45.1219 40.4237 44.8857 39.2415 44.2673 38.2508C40.2649 31.8468 58.356 38.2508 58.356 38.2508C58.4732 39.9162 58.7005 41.572 59.0364 43.2074Z" fill="black"/>
<circle cx="53.0726" cy="32.6489" r="11.8473" fill="#FFB9B9"/>
<path opacity="0.1" d="M60.4371 48.337C60.4371 48.337 58.0356 62.4256 54.0332 61.6251C50.0307 60.8246 37.543 46.736 37.543 46.736C37.543 46.736 24.5751 51.0586 26.6563 61.6251C28.7376 72.1916 30.8189 81.1572 26.4962 84.5192C22.1736 87.8813 19.4519 103.571 19.4519 103.571C19.4519 103.571 33.2204 97.8074 40.4248 100.049C47.6292 102.29 54.9938 101.169 56.7549 99.0882C58.5159 97.0069 61.0775 92.5242 61.0775 92.5242C61.0775 92.5242 57.3953 87.0808 59.1563 84.3591C60.9174 81.6375 63.1588 81.4774 64.4396 73.7926C65.7204 66.1079 75.8066 63.3862 73.8854 59.0636C71.9642 54.7409 68.282 48.337 60.4371 48.337Z" fill="black"/>
<path d="M60.4371 47.6966C60.4371 47.6966 58.0356 61.7852 54.0332 60.9847C50.0307 60.1843 37.543 46.0956 37.543 46.0956C37.543 46.0956 24.5751 50.4182 26.6563 60.9847C28.7376 71.5512 30.8189 80.5168 26.4962 83.8788C22.1736 87.2409 19.4519 102.931 19.4519 102.931C19.4519 102.931 33.2204 97.167 40.4248 99.4084C47.6292 101.65 54.9938 100.529 56.7549 98.4478C58.5159 96.3665 61.0775 91.8838 61.0775 91.8838C61.0775 91.8838 57.3953 86.4404 59.1563 83.7187C60.9174 80.9971 63.1588 80.837 64.4396 73.1522C65.7204 65.4675 75.8066 62.7458 73.8854 58.4232C71.9642 54.1005 68.282 47.6966 60.4371 47.6966Z" fill="#CBCDDA"/>
<path d="M70.0431 105.492C70.0431 105.492 76.4471 103.891 78.6885 105.812C80.9298 107.733 88.4545 111.736 85.8929 113.337C83.3313 114.938 67.8018 112.857 67.8018 112.857L70.0431 105.492Z" fill="#FFB9B9"/>
<g opacity="0.05">
<path d="M52.4323 60.9847C52.8065 61.0554 53.1936 60.999 53.5321 60.8246C49.0846 59.1084 37.5431 46.0956 37.5431 46.0956C37.5431 46.0956 37.0884 46.2477 36.3616 46.5631C38.5677 49.0142 48.8669 60.2723 52.4323 60.9847Z" fill="black"/>
<path d="M72.2844 58.4232C76.6999 56.7245 64.1193 65.4675 62.8385 73.1522C61.5578 80.837 59.3164 80.9971 57.5553 83.7187C55.7942 86.4404 59.4765 91.8838 59.4765 91.8838C59.4765 91.8838 56.9149 96.3665 55.1538 98.4478C54.1452 99.6405 51.297 100.515 47.6948 100.625C52.0399 100.763 55.6005 99.8102 56.7548 98.4478C58.5159 96.3665 61.0775 91.8838 61.0775 91.8838C61.0775 91.8838 57.3952 86.4404 59.1563 83.7187C60.9174 80.9971 63.1587 80.837 64.4395 73.1522C65.7203 65.4675 71.2437 58.8234 72.2844 58.4232Z" fill="black"/>
<path d="M19.5752 102.263C19.4935 102.69 19.4519 102.932 19.4519 102.932C19.4519 102.932 28.4046 99.1842 35.6507 98.9089C30.0584 98.6767 22.8316 101.056 19.5752 102.263Z" fill="black"/>
</g>
<path d="M72.7649 57.6227C72.7649 57.6227 74.2057 57.7828 75.6466 65.3074C77.0875 72.832 82.691 80.0365 82.691 80.0365C84.9058 82.9995 86.6351 86.2961 87.8141 89.8025C89.7353 95.566 98.3006 103.171 101.342 103.491C101.342 103.491 95.4989 109.334 96.1392 110.935C96.7796 112.536 95.4989 110.935 95.4989 110.935C95.4989 110.935 87.4939 107.894 85.7328 102.931C83.9718 97.9675 76.287 89.9626 76.287 89.9626C76.287 89.9626 66.0407 70.1104 65.5604 66.9084C65.0801 63.7064 72.7649 57.6227 72.7649 57.6227Z" fill="#CBCDDA"/>
<path opacity="0.1" d="M28.6577 84.5993C28.6577 84.5993 40.9853 86.0402 43.707 89.8825C46.4286 93.7249 59.0364 87.6508 59.0364 87.6508" fill="black"/>
<path opacity="0.1" d="M40.745 62.7458C40.745 62.7458 46.0282 82.1177 47.9494 84.5192C49.8706 86.9207 64.7597 106.613 71.8041 105.332C71.8041 105.332 69.7228 114.298 68.2819 114.618C68.2819 114.618 53.7129 100.209 48.7499 100.369C48.7499 100.369 39.6243 92.8443 38.6637 89.1621C37.7031 85.4798 30.0184 73.4724 30.0184 73.4724C30.0184 73.4724 26.176 64.9872 27.777 61.3049C29.378 57.6227 37.8632 59.2237 40.745 62.7458Z" fill="black"/>
<path d="M40.9051 62.4256C40.9051 62.4256 46.1884 81.7976 48.1095 84.199C50.0307 86.6005 64.9199 106.293 71.9642 105.012C71.9642 105.012 69.8829 113.977 68.4421 114.298C68.4421 114.298 53.8731 99.8887 48.91 100.049C48.91 100.049 39.7844 92.5242 38.8238 88.8419C37.8632 85.1596 30.1785 73.1522 30.1785 73.1522C30.1785 73.1522 26.3361 64.667 27.9371 60.9847C29.5381 57.3025 38.0233 58.9035 40.9051 62.4256Z" fill="#CBCDDA"/>
<path opacity="0.1" d="M61.6651 21.4164C61.5499 19.8611 60.4002 18.5793 58.8666 18.2961C57.8644 18.136 56.7453 18.4193 55.884 17.8798C55.4949 17.6349 55.2164 17.2522 54.9026 16.9192C53.673 15.6048 51.8271 14.998 50.0276 14.9452C48.2281 14.8924 46.4542 15.3278 44.7251 15.8257C41.2734 16.82 37.6263 18.2785 35.79 21.3652C32.9979 26.064 35.5739 32.3975 33.3661 37.3974C32.4055 39.5812 30.574 41.3647 29.9784 43.6765C29.1779 46.7648 30.7565 49.8979 31.9717 52.8469C33.0617 55.4919 33.8897 58.2374 34.4436 61.044C34.9319 63.5223 35.204 66.0983 34.6533 68.5686C34.4116 69.6493 34.0129 70.7491 34.2274 71.8346C34.5476 73.4772 36.1358 74.5131 37.5799 75.3568L37.9561 75.5777C40.0374 76.7945 42.1779 78.0368 44.5618 78.3378C46.0427 78.5235 47.6037 78.3186 48.8845 77.5613C50.1653 76.8041 51.1403 75.4528 51.2491 73.9655C51.3708 72.2829 50.4342 70.7075 50.2325 69.0313C50.1862 68.7788 50.2055 68.5186 50.2885 68.2756C50.4214 67.9554 50.7304 67.7489 51.0154 67.5504C55.1203 64.6878 57.3217 59.3309 56.4139 54.4095C55.7959 51.057 53.8747 47.7238 54.8049 44.4434C55.3188 42.631 56.6428 41.1629 57.3857 39.4323C58.1706 37.5839 58.2682 35.5156 57.6611 33.6015C57.2368 32.2791 56.4683 30.9583 56.7325 29.599C57.1984 27.1847 60.4148 26.4147 61.6299 24.2757C62.5313 22.6844 61.9981 20.4334 60.4772 19.4216" fill="black"/>
<path d="M61.3451 21.2563C61.2298 19.701 60.0801 18.4192 58.5465 18.136C57.5443 17.9759 56.4252 18.2592 55.5639 17.7197C55.1749 17.4748 54.8963 17.0921 54.5825 16.7591C53.3529 15.4447 51.507 14.8379 49.7075 14.7851C47.908 14.7323 46.1341 15.1677 44.405 15.6657C40.9533 16.6599 37.3063 18.1184 35.4699 21.2051C32.6778 25.904 35.2538 32.2374 33.046 37.2373C32.0855 39.4211 30.2539 41.2046 29.6584 43.5164C28.8579 46.6047 30.4364 49.7378 31.6516 52.6868C32.7417 55.3318 33.5696 58.0773 34.1235 60.8839C34.6118 63.3622 34.884 65.9382 34.3332 68.4085C34.0915 69.4892 33.6928 70.5891 33.9074 71.6745C34.2276 73.3171 35.8158 74.353 37.2598 75.1967L37.6361 75.4176C39.7174 76.6344 41.8579 77.8767 44.2417 78.1777C45.7227 78.3634 47.2836 78.1585 48.5644 77.4012C49.8452 76.644 50.8202 75.2927 50.9291 73.8054C51.0507 72.1228 50.1142 70.5474 49.9124 68.8712C49.8661 68.6187 49.8854 68.3585 49.9685 68.1155C50.1013 67.7953 50.4103 67.5888 50.6953 67.3903C54.8002 64.5277 57.0016 59.1708 56.0938 54.2494C55.4759 50.8969 53.5547 47.5637 54.4848 44.2833C54.9988 42.4709 56.3228 41.0028 57.0656 39.2722C57.8505 37.4238 57.9482 35.3555 57.341 33.4414C56.9167 32.119 56.1483 30.7982 56.4124 29.4389C56.8783 27.0246 60.0947 26.2546 61.3098 24.1157C62.2112 22.5243 61.6781 20.2733 60.1571 19.2615" fill="#B96B6B"/>
<path d="M72.2364 122.989C72.5298 122.75 72.7436 122.427 72.8496 122.064C72.9296 121.696 72.7727 121.255 72.4205 121.121C72.0266 120.97 71.6056 121.243 71.287 121.52C70.9684 121.797 70.6018 122.11 70.1839 122.051C70.6208 121.655 70.8177 121.059 70.7026 120.481C70.6846 120.363 70.6348 120.252 70.5585 120.16C70.3392 119.927 69.9438 120.027 69.6812 120.212C68.8487 120.798 68.6165 121.928 68.6117 122.946C68.5285 122.579 68.5989 122.197 68.5957 121.825C68.5925 121.454 68.4901 121.025 68.1731 120.83C67.9765 120.724 67.7557 120.672 67.5327 120.677C67.158 120.663 66.7418 120.701 66.4856 120.975C66.1654 121.315 66.2503 121.886 66.5273 122.256C66.8042 122.626 67.2237 122.864 67.6111 123.124C67.9216 123.308 68.1865 123.561 68.386 123.862C68.4095 123.904 68.4288 123.948 68.4436 123.993H70.7859C71.3125 123.726 71.8005 123.388 72.2364 122.989Z" fill="#FFAB2B"/>
<rect opacity="0.1" x="93.6577" y="36.5713" width="50.9113" height="3.52217" fill="#FFAB2B"/>
<rect opacity="0.1" x="93.6577" y="51.7807" width="50.9113" height="3.52217" fill="#FFAB2B"/>
<rect opacity="0.1" x="93.6577" y="67.6304" width="50.9113" height="3.52217" fill="#FFAB2B"/>
<rect opacity="0.1" x="98.1404" y="27.4457" width="3.20197" height="9.12562" fill="#FFAB2B"/>
<rect opacity="0.1" x="98.1404" y="28.8866" width="3.20197" height="0.640394" fill="#FFAB2B"/>
<rect opacity="0.1" x="98.1404" y="33.8496" width="3.20197" height="0.640394" fill="#FFAB2B"/>
<rect opacity="0.1" x="102.943" y="27.4457" width="3.20197" height="9.12562" fill="#FFAB2B"/>
<rect opacity="0.1" x="102.943" y="28.8866" width="3.20197" height="0.640394" fill="#FFAB2B"/>
<rect opacity="0.1" x="102.943" y="33.8496" width="3.20197" height="0.640394" fill="#FFAB2B"/>
<rect opacity="0.1" x="107.746" y="27.4457" width="3.20197" height="9.12562" fill="#FFAB2B"/>
<rect opacity="0.1" x="107.746" y="28.8866" width="3.20197" height="0.640394" fill="#FFAB2B"/>
<rect opacity="0.1" x="107.746" y="33.8496" width="3.20197" height="0.640394" fill="#FFAB2B"/>
<rect opacity="0.1" x="112.549" y="27.4457" width="3.20197" height="9.12562" fill="#FFAB2B"/>
<rect opacity="0.1" x="112.549" y="28.8866" width="3.20197" height="0.640394" fill="#FFAB2B"/>
<rect opacity="0.1" x="112.549" y="33.8496" width="3.20197" height="0.640394" fill="#FFAB2B"/>
<rect opacity="0.1" x="117.352" y="27.4457" width="3.20197" height="9.12562" fill="#FFAB2B"/>
<rect opacity="0.1" x="117.352" y="28.8866" width="3.20197" height="0.640394" fill="#FFAB2B"/>
<rect opacity="0.1" x="117.352" y="33.8496" width="3.20197" height="0.640394" fill="#FFAB2B"/>
<rect opacity="0.1" x="122.155" y="27.4457" width="3.20197" height="9.12562" fill="#FFAB2B"/>
<rect opacity="0.1" x="122.155" y="28.8866" width="3.20197" height="0.640394" fill="#FFAB2B"/>
<rect opacity="0.1" x="122.155" y="33.8496" width="3.20197" height="0.640394" fill="#FFAB2B"/>
<rect opacity="0.1" x="126.958" y="27.4457" width="3.20197" height="9.12562" fill="#FFAB2B"/>
<rect opacity="0.1" x="126.958" y="28.8866" width="3.20197" height="0.640394" fill="#FFAB2B"/>
<rect opacity="0.1" x="126.958" y="33.8496" width="3.20197" height="0.640394" fill="#FFAB2B"/>
<path opacity="0.1" d="M125.403 59.6994L128.265 58.2642L132.355 66.4218L129.493 67.857L125.403 59.6994Z" fill="#FFAB2B"/>
<path opacity="0.1" d="M126.05 60.9869L128.912 59.5517L129.199 60.1242L126.337 61.5594L126.05 60.9869Z" fill="#FFAB2B"/>
<path opacity="0.1" d="M128.273 65.424L131.135 63.9888L131.422 64.5613L128.56 65.9965L128.273 65.424Z" fill="#FFAB2B"/>
<rect opacity="0.1" x="98.1404" y="42.8152" width="3.20197" height="9.12562" fill="#FFAB2B"/>
<rect opacity="0.1" x="98.1404" y="44.256" width="3.20197" height="0.640394" fill="#FFAB2B"/>
<rect opacity="0.1" x="98.1404" y="49.2191" width="3.20197" height="0.640394" fill="#FFAB2B"/>
<rect opacity="0.1" x="102.943" y="42.8152" width="3.20197" height="9.12562" fill="#FFAB2B"/>
<rect opacity="0.1" x="102.943" y="44.256" width="3.20197" height="0.640394" fill="#FFAB2B"/>
<rect opacity="0.1" x="102.943" y="49.2191" width="3.20197" height="0.640394" fill="#FFAB2B"/>
<rect opacity="0.1" x="107.746" y="42.8152" width="3.20197" height="9.12562" fill="#FFAB2B"/>
<rect opacity="0.1" x="107.746" y="44.256" width="3.20197" height="0.640394" fill="#FFAB2B"/>
<rect opacity="0.1" x="107.746" y="49.2191" width="3.20197" height="0.640394" fill="#FFAB2B"/>
<rect opacity="0.1" x="127.759" y="42.8152" width="3.20197" height="9.12562" fill="#FFAB2B"/>
<rect opacity="0.1" x="127.759" y="44.256" width="3.20197" height="0.640394" fill="#FFAB2B"/>
<rect opacity="0.1" x="127.759" y="49.2191" width="3.20197" height="0.640394" fill="#FFAB2B"/>
<rect opacity="0.1" x="132.562" y="42.8152" width="3.20197" height="9.12562" fill="#FFAB2B"/>
<rect opacity="0.1" x="132.562" y="44.256" width="3.20197" height="0.640394" fill="#FFAB2B"/>
<rect opacity="0.1" x="132.562" y="49.2191" width="3.20197" height="0.640394" fill="#FFAB2B"/>
<rect opacity="0.1" x="137.365" y="42.8152" width="3.20197" height="9.12562" fill="#FFAB2B"/>
<rect opacity="0.1" x="137.365" y="44.256" width="3.20197" height="0.640394" fill="#FFAB2B"/>
<rect opacity="0.1" x="137.365" y="49.2191" width="3.20197" height="0.640394" fill="#FFAB2B"/>
<rect opacity="0.1" x="98.1404" y="58.5048" width="3.20197" height="9.12562" fill="#FFAB2B"/>
<rect opacity="0.1" x="98.1404" y="59.9457" width="3.20197" height="0.640394" fill="#FFAB2B"/>
<rect opacity="0.1" x="98.1404" y="64.9088" width="3.20197" height="0.640394" fill="#FFAB2B"/>
<rect opacity="0.1" x="102.943" y="58.5048" width="3.20197" height="9.12562" fill="#FFAB2B"/>
<rect opacity="0.1" x="102.943" y="59.9457" width="3.20197" height="0.640394" fill="#FFAB2B"/>
<rect opacity="0.1" x="102.943" y="64.9088" width="3.20197" height="0.640394" fill="#FFAB2B"/>
<rect opacity="0.1" x="107.746" y="58.5048" width="3.20197" height="9.12562" fill="#FFAB2B"/>
<rect opacity="0.1" x="107.746" y="59.9457" width="3.20197" height="0.640394" fill="#FFAB2B"/>
<rect opacity="0.1" x="107.746" y="64.9088" width="3.20197" height="0.640394" fill="#FFAB2B"/>
<rect opacity="0.1" x="112.549" y="58.5048" width="3.20197" height="9.12562" fill="#FFAB2B"/>
<rect opacity="0.1" x="112.549" y="59.9457" width="3.20197" height="0.640394" fill="#FFAB2B"/>
<rect opacity="0.1" x="112.549" y="64.9088" width="3.20197" height="0.640394" fill="#FFAB2B"/>
<rect opacity="0.1" x="117.352" y="58.5048" width="3.20197" height="9.12562" fill="#FFAB2B"/>
<rect opacity="0.1" x="117.352" y="59.9457" width="3.20197" height="0.640394" fill="#FFAB2B"/>
<rect opacity="0.1" x="117.352" y="64.9088" width="3.20197" height="0.640394" fill="#FFAB2B"/>
<rect opacity="0.1" x="122.155" y="58.5048" width="3.20197" height="9.12562" fill="#FFAB2B"/>
<rect opacity="0.1" x="122.155" y="59.9457" width="3.20197" height="0.640394" fill="#FFAB2B"/>
<rect opacity="0.1" x="122.155" y="64.9088" width="3.20197" height="0.640394" fill="#FFAB2B"/>
<path opacity="0.1" d="M134.963 28.2574V36.5697H131.761V27.6474C132.833 27.8363 133.9 28.0397 134.963 28.2574Z" fill="#FFAB2B"/>
<rect opacity="0.1" x="131.761" y="28.8866" width="3.20197" height="0.640394" fill="#FFAB2B"/>
<rect opacity="0.1" x="131.761" y="33.8496" width="3.20197" height="0.640394" fill="#FFAB2B"/>
<path opacity="0.1" d="M139.766 29.3685V36.5729H136.564V28.6C136.98 28.6913 137.395 28.7873 137.81 28.885C138.465 29.0387 139.117 29.1998 139.766 29.3685Z" fill="#FFAB2B"/>
<path opacity="0.1" d="M139.766 29.3685V29.5286H136.564V28.8882H137.81C138.465 29.0398 139.117 29.1998 139.766 29.3685Z" fill="#FFAB2B"/>
<rect opacity="0.1" x="136.564" y="33.8496" width="3.20197" height="0.640394" fill="#FFAB2B"/>
<circle opacity="0.1" cx="23.4865" cy="26.056" r="5.97648" fill="#FFAB2B"/>
<circle opacity="0.1" cx="23.4865" cy="26.056" r="5.07192" fill="#FFAB2B"/>
<circle opacity="0.1" cx="23.4863" cy="26.056" r="0.361823" fill="#FFAB2B"/>
<path opacity="0.1" d="M25.6606 22.2537L23.6658 25.7439" stroke="#FFAB2B"/>
<path opacity="0.1" d="M25.7502 27.2344L23.813 26.2145" stroke="#FFAB2B"/>
<rect x="74.9678" y="114.707" width="18.8004" height="2.65603" rx="1.32802" fill="#535461"/>
<g opacity="0.7">
<rect x="86.4099" y="85.0908" width="46.7248" height="32.3079" rx="16.1539" fill="url(#paint0_linear_213_6560)"/>
</g>
<rect x="87.2441" y="85.6863" width="44.2624" height="31.7107" rx="15.8554" fill="#3E3F49"/>
<rect x="87.8572" y="85.6863" width="44.2624" height="31.7107" rx="15.8554" fill="#535461"/>
<circle cx="112.056" cy="101.323" r="1.42968" fill="#E0E0E0"/>
<path d="M35.6315 115.484C35.6315 115.484 33.0891 114.623 31.866 116.862C31.2101 118.097 31.2306 119.58 31.9204 120.796C32.7209 122.248 34.3795 124.134 37.5238 123.966C40.1847 123.823 41.07 121.793 41.3102 119.904C41.4974 118.464 40.9221 117.03 39.7913 116.118C38.6605 115.207 37.137 114.949 35.7692 115.437L35.6315 115.484Z" fill="#FFAB2B"/>
<path opacity="0.1" d="M32.4583 120.998C31.7685 119.782 31.748 118.298 32.4039 117.064C33.627 114.823 36.1694 115.686 36.1694 115.686L36.2991 115.639C37.2685 115.288 38.3339 115.312 39.2865 115.706C38.222 115.073 36.9295 114.949 35.7643 115.37L35.6347 115.417C35.6347 115.417 33.0923 114.555 31.8691 116.795C31.2133 118.029 31.2338 119.513 31.9236 120.729C32.4535 121.689 33.3517 122.828 34.8053 123.45C33.8133 122.863 33.0015 122.015 32.4583 120.998Z" fill="white"/>
<path opacity="0.2" d="M34.3186 116.561C34.3186 116.561 35.2616 117.303 37.5494 116.561H34.3186Z" fill="black"/>
<path d="M34.1169 111.176C34.1169 111.176 35.7323 115.551 35.5979 116.696L36.8786 116.561C36.8786 116.561 34.7237 112.719 35.2632 111.176H34.1169Z" fill="#FFAB2B"/>
<path opacity="0.2" d="M34.1169 111.176C34.1169 111.176 35.7323 115.551 35.5979 116.696L36.8786 116.561C36.8786 116.561 34.7237 112.719 35.2632 111.176H34.1169Z" fill="black"/>
<path d="M40.7114 111.542C40.7114 111.542 38.169 110.242 37.0291 111.317C35.8892 112.391 35.7163 115.136 35.7163 115.136C35.7163 115.136 39.8645 115.706 40.7114 111.542Z" fill="#FFAB2B"/>
<path opacity="0.1" d="M40.7114 111.542C40.7114 111.542 38.169 110.242 37.0291 111.317C35.8892 112.391 35.7163 115.136 35.7163 115.136C35.7163 115.136 39.8645 115.706 40.7114 111.542Z" fill="white"/>
<path d="M35.718 115.136C35.718 115.136 36.3856 111.949 40.7115 111.542" stroke="#FFAB2B"/>
<g opacity="0.1">
<path d="M117.415 48.6219C117.415 48.6219 116.444 48.2921 115.974 49.1487C115.724 49.6199 115.731 50.1863 115.995 50.6504C116.302 51.2043 116.934 51.9312 118.132 51.8607C119.148 51.8063 119.486 51.0314 119.573 50.3094C119.64 49.7603 119.419 49.2153 118.989 48.868C118.558 48.5208 117.979 48.4205 117.456 48.6027L117.415 48.6219Z" fill="#FFAB2B"/>
<path opacity="0.1" d="M116.206 50.7288C115.943 50.2647 115.935 49.6983 116.185 49.2271C116.652 48.3722 117.626 48.7004 117.626 48.7004L117.676 48.6828C118.046 48.5487 118.453 48.5579 118.817 48.7084C118.41 48.4661 117.916 48.4191 117.471 48.5803L117.421 48.5979C117.421 48.5979 116.451 48.2681 115.98 49.1246C115.73 49.5959 115.738 50.1622 116.001 50.6264C116.241 51.085 116.628 51.4506 117.099 51.6654C116.721 51.4409 116.412 51.1169 116.206 50.7288Z" fill="#FFAB2B"/>
<path opacity="0.2" d="M116.914 49.0334C116.914 49.0334 117.274 49.3168 118.148 49.0334H116.914Z" fill="#FFAB2B"/>
<path d="M116.835 46.9761C116.835 46.9761 117.451 48.6475 117.4 49.0846L117.888 49.0334C117.888 49.0334 117.066 47.5685 117.272 46.9761H116.835Z" fill="#FFAB2B"/>
<path opacity="0.2" d="M116.835 46.9761C116.835 46.9761 117.451 48.6475 117.4 49.0846L117.888 49.0334C117.888 49.0334 117.066 47.5685 117.272 46.9761H116.835Z" fill="#FFAB2B"/>
<path d="M119.355 47.117C119.355 47.117 118.383 46.6207 117.949 47.0306C117.515 47.4404 117.448 48.4891 117.448 48.4891C117.448 48.4891 119.032 48.7036 119.355 47.117Z" fill="#FFAB2B"/>
<path opacity="0.1" d="M119.355 47.117C119.355 47.117 118.383 46.6207 117.949 47.0306C117.515 47.4404 117.448 48.4891 117.448 48.4891C117.448 48.4891 119.032 48.7036 119.355 47.117Z" fill="#FFAB2B"/>
<path d="M117.447 48.489C117.447 48.489 117.701 47.2723 119.353 47.1154L117.447 48.489Z" fill="#FFAB2B"/>
</g>
<g opacity="0.1">
<path d="M137.907 64.4717C137.907 64.4717 136.937 64.1419 136.466 64.9984C136.216 65.4696 136.224 66.036 136.487 66.5001C136.795 67.0541 137.427 67.7809 138.625 67.7105C139.641 67.656 139.979 66.8812 140.065 66.1591C140.133 65.61 139.912 65.065 139.481 64.7178C139.051 64.3705 138.471 64.2702 137.949 64.4525L137.907 64.4717Z" fill="#FFAB2B"/>
<path opacity="0.1" d="M136.698 66.5786C136.435 66.1145 136.428 65.5481 136.678 65.0769C137.145 64.2219 138.119 64.5501 138.119 64.5501L138.168 64.5325C138.539 64.3985 138.946 64.4076 139.31 64.5581C138.903 64.3158 138.409 64.2688 137.963 64.4301L137.914 64.4477C137.914 64.4477 136.943 64.1179 136.473 64.9744C136.223 65.4456 136.23 66.012 136.494 66.4761C136.734 66.9348 137.121 67.3004 137.592 67.5152C137.214 67.2906 136.905 66.9667 136.698 66.5786Z" fill="#FFAB2B"/>
<path opacity="0.2" d="M137.406 64.8831C137.406 64.8831 137.766 65.1665 138.641 64.8831H137.406Z" fill="#FFAB2B"/>
<path d="M137.328 62.8259C137.328 62.8259 137.944 64.4973 137.893 64.9344L138.381 64.8831C138.381 64.8831 137.558 63.4182 137.765 62.8259H137.328Z" fill="#FFAB2B"/>
<path opacity="0.2" d="M137.328 62.8259C137.328 62.8259 137.944 64.4973 137.893 64.9344L138.381 64.8831C138.381 64.8831 137.558 63.4182 137.765 62.8259H137.328Z" fill="#FFAB2B"/>
<path d="M139.848 62.9668C139.848 62.9668 138.876 62.4705 138.442 62.8803C138.008 63.2902 137.941 64.3388 137.941 64.3388C137.941 64.3388 139.524 64.5533 139.848 62.9668Z" fill="#FFAB2B"/>
<path opacity="0.1" d="M139.848 62.9668C139.848 62.9668 138.876 62.4705 138.442 62.8803C138.008 63.2902 137.941 64.3388 137.941 64.3388C137.941 64.3388 139.524 64.5533 139.848 62.9668Z" fill="#FFAB2B"/>
<path d="M137.939 64.3388C137.939 64.3388 138.194 63.1221 139.846 62.9652L137.939 64.3388Z" fill="#FFAB2B"/>
</g>
<defs>
<linearGradient id="paint0_linear_213_6560" x1="133.134" y1="117.397" x2="133.134" y2="85.0908" gradientUnits="userSpaceOnUse">
<stop stop-color="#808080" stop-opacity="0.25"/>
<stop offset="0.54" stop-color="#808080" stop-opacity="0.12"/>
<stop offset="1" stop-color="#808080" stop-opacity="0.1"/>
</linearGradient>
</defs>
</svg>
